<svg xmlns="http://www.w3.org/2000/svg" width="53" height="53" fill="none" viewBox="0 0 53 53"><g style="mix-blend-mode:luminosity"><path fill="#fff" fill-rule="evenodd" d="M0.0908203 0.169922H52.0908V52.1699H0.0908203V0.169922Z" clip-rule="evenodd"/><path fill="#577884" fill-rule="evenodd" d="M51.3263 1.72515V50.615H0.855352V1.72515H51.3263ZM41.2598 47.7729C42.2604 47.7729 43.0813 47.0327 43.1808 46.0321L46.9234 6.14778C47.0234 5.20709 46.2826 4.50676 45.4423 4.50676H6.55912C5.59847 4.50676 4.97826 5.30717 5.05812 6.14778L8.80038 46.0321C8.8805 47.0327 9.70088 47.7729 10.7015 47.7729H19.4067V49.7541H32.1145V47.7729H41.2598Z" clip-rule="evenodd"/><path fill="#577884" fill-rule="evenodd" d="M15.024 28.4611H10.9016V35.8857H15.024V34.1446H13.243V32.884H15.024V31.4434H13.243V30.1223H15.024V28.4611ZM24.7099 28.4611L25.7906 35.8857H28.7524L30.1935 28.4611H28.6124L27.6717 32.9841L26.9115 28.4611H24.7099ZM24.2696 28.4611H20.1472V35.8857H24.2696V34.1446H22.4886V32.884H24.2696V31.4434H22.4886V30.1223H24.2696V28.4611ZM34.7559 28.4611H30.6335V35.8857H34.7559V34.1446H32.9748V32.884H34.7559V31.4434H32.9748V30.1223H34.7559V28.4611ZM18.2661 28.4611H15.9248V35.8857H19.687V34.1446H18.2661V28.4611ZM35.5967 28.4611V35.8855H37.9179V30.6624C37.9179 30.1223 38.919 30.1223 38.919 30.6624V35.8855H41.26V29.5618C41.26 28.9615 40.6598 28.3815 39.8597 28.3615C39.3992 28.3615 38.8591 28.5612 38.3587 29.0619C38.1585 29.2421 37.7385 29.2221 37.9181 28.4611H35.5967Z" clip-rule="evenodd"/><path fill="#BB3C44" fill-rule="evenodd" d="M31.9144 36.5464H21.1478C20.3674 41.4692 20.1672 42.7501 20.2273 48.8337H31.4738C31.4738 45.4316 31.4344 43.8108 31.4738 42.2094C31.5138 40.7689 31.6341 39.3277 31.9144 36.5464Z" clip-rule="evenodd"/><path fill="#D6983B" fill-rule="evenodd" d="M38.2982 9.12956H11.5221V18.8354H25.9907C29.3532 14.553 33.4955 11.3312 38.2982 9.12956Z" clip-rule="evenodd"/><path fill="#BB3C44" fill-rule="evenodd" d="M22.3685 27.781H33.155C34.396 22.8981 37.0171 20.6366 41.0596 19.2959V8.96959C32.2146 11.7712 25.0902 19.0555 22.3685 27.781Z" clip-rule="evenodd"/><path fill="#577884" fill-rule="evenodd" d="M33.7955 39.608C33.1354 39.608 32.6147 39.0674 32.6147 38.4272C32.6147 37.7671 33.1354 37.2265 33.7955 37.2265C34.4562 37.2265 34.9763 37.7671 34.9763 38.4272C34.976 39.0677 34.4562 39.608 33.7955 39.608ZM33.7955 39.3879C34.3361 39.3879 34.7761 38.9479 34.7761 38.4272C34.7757 38.1673 34.6723 37.9181 34.4885 37.7342C34.3047 37.5504 34.0555 37.447 33.7955 37.4466C33.5356 37.4471 33.2864 37.5506 33.1026 37.7344C32.9188 37.9182 32.8154 38.1673 32.8149 38.4272C32.8149 38.9479 33.2554 39.3879 33.7955 39.3879Z" clip-rule="evenodd"/><path fill="#577884" fill-rule="evenodd" d="M33.5557 38.5276V39.1076H33.3555V37.7471H33.8556C34.1761 37.7471 34.3361 37.8672 34.3361 38.1469C34.3361 38.3873 34.1958 38.4874 33.9957 38.5074L34.376 39.1076H34.1357L33.7952 38.5276H33.5557ZM33.5557 38.3474H33.7955C33.9757 38.3474 34.116 38.3274 34.116 38.1273C34.116 37.967 33.9757 37.9276 33.8357 37.9276H33.5559L33.5557 38.3474Z" clip-rule="evenodd"/></g></svg>