<svg xmlns="http://www.w3.org/2000/svg" width="154" height="52" fill="none" viewBox="0 0 154 52"><g style="mix-blend-mode:luminosity"><path fill="#009F93" d="M29.4391 13.8159C27.9817 12.7421 25.3482 11.7705 20.8738 14.2762C20.5669 14.4551 20.2857 14.6341 20.03 14.7364C19.3397 14.4296 18.5471 14.1483 17.6522 13.7904C13.7402 12.4352 11.1323 11.3102 8.19194 9.39263C4.66353 7.19377 2.72035 4.79036 1.82546 1.08297C1.64648 0.367064 1.46751 0.392633 1.23739 1.5432C-0.603516 9.85286 2.00444 15.7591 7.11808 18.9551C7.29706 19.0318 7.37376 19.083 7.19478 18.8273C3.33399 14.8387 1.41637 10.4409 1.9533 4.76479C4.2033 9.36706 11.1067 12.8955 17.0385 14.8642C17.601 15.0432 18.138 15.2477 18.6238 15.4267C16.655 16.3216 14.8397 16.9097 12.3596 17.8557C5.02149 20.5404 0.777166 26.1142 0.521484 34.296C0.521484 34.5006 0.598189 34.5517 0.700462 34.3472C3.51296 31.0745 6.06978 28.5176 9.39365 26.6767C12.155 25.2449 15.1209 24.3245 18.2147 23.9409C20.1834 23.7364 20.8482 22.1512 20.7204 21.3074C22.638 21.6654 24.2488 20.4637 24.0442 18.4182C23.9164 17.2165 23.1493 16.2449 21.4107 15.2989C24.9902 13.1256 27.6749 13.7648 28.7232 14.6597C29.4135 15.2477 30.155 15.7847 30.9476 16.2449C27.1891 17.6512 27.2402 21.7932 22.8937 24.2477C18.9817 26.4722 16.1181 25.1426 13.4079 26.8557C13.28 26.9324 13.3311 26.9835 13.459 26.9324C16.3993 26.012 19.7999 27.2137 23.4817 25.3216C25.6039 24.2222 27.0613 22.3046 28.851 19.6199C30.3084 17.4466 32.226 16.8585 33.9647 16.4239C31.9704 15.7335 30.8198 14.8387 29.4391 13.8159ZM22.638 19.5943C22.0755 20.6682 20.0812 20.1824 18.9817 19.671C18.8539 19.5943 18.8027 19.671 18.905 19.7477C19.9789 21.2818 19.6209 22.637 18.0101 22.8159C9.87944 23.7875 5.09819 27.6227 2.00444 31.279C3.35955 24.6313 7.75728 20.796 12.8709 18.9807C15.3255 18.137 17.7544 17.1909 20.1067 16.0915C22.9448 17.5233 23.0726 18.7506 22.638 19.5943Z"/><path fill="#54301A" d="M26.5764 42.5037V42.5548C26.5764 42.606 26.5253 42.606 26.5253 42.6315C26.2441 43.3474 25.835 44.0122 25.298 44.5491C24.7867 45.1372 24.0708 45.4952 23.3037 45.5207C22.4855 45.5207 22.102 45.0605 22.102 44.0634C22.102 43.8332 22.1276 43.5776 22.1787 43.3474C21.2071 44.8048 20.0821 45.5207 18.9316 45.5207C18.2668 45.5463 17.6531 45.2395 17.2696 44.7026C16.9117 44.1656 16.7327 43.552 16.7583 42.9128C16.7583 41.4298 17.3975 39.7935 18.6759 38.0293C20.031 36.1628 21.4372 35.1656 22.8435 35.1656C23.4571 35.1656 24.0196 35.4724 24.3776 35.9838C24.5054 35.5491 24.7355 35.2935 25.0935 35.2935C25.7838 35.2935 26.1162 35.4213 26.1162 35.6514C26.1162 35.7026 25.9372 36.2395 25.6049 37.2366C24.2753 41.1997 23.6361 43.4497 23.6361 44.0378C23.6361 44.3446 23.7128 44.4724 23.9429 44.4724C24.3776 44.4724 24.8378 44.0889 25.4003 43.3219C25.656 42.9128 25.9372 42.5293 26.2441 42.1457C26.423 42.1969 26.5509 42.3503 26.5764 42.5037ZM23.8662 36.9554C23.8662 36.6741 23.7639 36.3929 23.5594 36.1883C23.3804 35.9838 23.1247 35.856 22.8435 35.8304C21.8975 35.8304 20.9259 36.802 19.9543 38.8219C19.0083 40.6116 18.548 42.069 18.548 43.1173C18.548 44.0889 18.906 44.5747 19.5196 44.5747C20.4657 44.5747 21.3605 43.6287 22.281 41.7622C22.9202 40.4838 23.406 39.1287 23.7384 37.7224C23.7895 37.3134 23.8662 37.0577 23.8662 36.9554ZM40.4088 33.6571C40.4088 36.5974 38.4145 38.0804 34.4003 38.0804C33.889 38.0804 33.3264 38.0293 32.7384 38.0037V41.9668C32.7384 43.373 32.9941 44.1401 33.4543 44.3446C33.5054 44.3446 33.8122 44.4724 34.4003 44.6514C34.7583 44.7281 34.9117 44.856 34.9117 45.0094C34.9117 45.1628 34.7838 45.2651 34.5537 45.2651H28.5452C28.3407 45.2651 28.1872 45.1884 28.1872 45.0094C28.1872 44.8304 28.3662 44.7537 28.6986 44.6514C29.031 44.6003 29.3378 44.498 29.6446 44.3446C30.1049 44.1401 30.3605 43.3219 30.3605 41.9668V32.8901C30.3605 31.4838 30.1049 30.7168 29.6446 30.5122C29.5935 30.5122 29.2867 30.3844 28.6986 30.2054C28.3407 30.1287 28.1872 30.0008 28.1872 29.8474C28.1872 29.694 28.3151 29.5918 28.5452 29.5918H35.0907C36.6247 29.5918 37.852 29.8986 38.798 30.5378C39.8975 31.2026 40.4088 32.2253 40.4088 33.6571ZM37.8009 33.6315C37.8009 32.4043 37.4941 31.5094 36.906 30.9469C36.3179 30.3844 35.423 30.1287 34.1702 30.1798C33.2242 30.1798 32.764 30.3844 32.764 30.819V37.1088C33.1475 37.1855 33.5566 37.2111 33.9657 37.2366C36.5225 37.2111 37.7753 36.0349 37.8009 33.6315ZM45.906 44.9838C45.906 45.1628 45.7782 45.2395 45.548 45.2395H40.7668C40.5622 45.2395 40.4088 45.1628 40.4088 44.9838C40.4088 44.8048 40.5878 44.7793 40.9202 44.677C41.2526 44.6258 41.585 44.498 41.8662 44.319C42.0452 44.1912 42.1219 43.8844 42.173 43.3474V31.7395C42.1986 31.4838 42.1475 31.2026 42.0452 30.9724C41.9685 30.8446 41.7384 30.7935 41.3549 30.7935C40.7924 30.7935 40.5111 30.7168 40.5111 30.5378C40.5111 30.3588 40.6901 30.1798 41.0225 30.1543C41.8662 29.9753 42.71 29.7452 43.5282 29.4383C43.6049 29.4128 43.7071 29.3872 43.7838 29.3872C43.9117 29.3872 44.0395 29.4895 44.0395 29.6173V29.6429C44.0907 30.0008 44.0907 30.3588 44.0907 30.7168V41.9923C44.0907 43.4753 44.1674 44.2935 44.3975 44.3702C44.7043 44.498 45.0111 44.6003 45.3435 44.677C45.7782 44.7281 45.9316 44.856 45.906 44.9838V44.9838ZM56.4912 43.7054C56.1077 44.856 55.3918 45.4185 54.3946 45.4185C53.3208 45.4185 52.6816 44.856 52.4259 43.8077C51.3265 44.8815 50.1759 45.4185 49.0253 45.4185C47.8236 45.5207 46.7497 44.6258 46.6475 43.3986C46.6475 43.2707 46.6475 43.1429 46.6475 43.0151C46.6475 41.6599 47.3634 40.6628 48.8208 39.998C49.639 39.6145 50.8662 39.3588 52.4515 39.1543C52.5026 37.748 52.3748 36.8531 52.0935 36.4185C51.8123 35.9838 51.3776 35.856 50.6105 35.9071C49.9713 35.9071 49.5367 36.1116 49.3321 36.5463C49.2554 36.9298 49.1276 37.2622 49.0253 37.6457C48.8975 38.0293 48.4884 38.2849 48.0793 38.2338C47.4401 38.2338 47.1077 37.927 47.1077 37.3901C47.1077 36.6741 47.5679 36.1116 48.4628 35.677C49.2043 35.3702 49.9969 35.2423 50.8151 35.2423C53.1929 35.2423 54.3946 36.0861 54.3946 37.7224V43.194C54.3946 44.0122 54.5992 44.3957 55.085 44.3957C55.3918 44.3702 55.6475 44.1912 55.8009 43.9355C56.0054 43.6287 56.1588 43.4753 56.2355 43.4753C56.3123 43.4753 56.389 43.5008 56.4401 43.552C56.4912 43.6031 56.5168 43.6798 56.4912 43.731V43.7054ZM52.4259 42.2991V39.819C51.5566 39.9469 50.7384 40.2026 49.9458 40.5861C49.0509 41.0974 48.6162 41.7878 48.6162 42.6827C48.5907 43.1173 48.7441 43.5264 49.0509 43.8332C49.3321 44.1401 49.7412 44.2935 50.1503 44.2679C50.7128 44.2679 51.2753 44.0889 51.7355 43.7054C52.1446 43.3474 52.4003 42.8105 52.4259 42.2991ZM65.1844 43.7054C64.2128 44.9327 63.0623 45.5719 61.656 45.5719C60.352 45.623 59.0736 45.1116 58.1532 44.1656C57.2583 43.1685 56.7725 41.8389 56.8236 40.5094C56.7725 39.1031 57.3094 37.748 58.281 36.7253C59.7895 35.2423 62.0395 34.8332 63.9827 35.6514C64.8009 36.0349 65.21 36.4952 65.21 37.1088C65.21 37.7224 64.9032 37.9526 64.3151 37.9526C63.9571 37.9526 63.6248 37.748 63.4713 37.4412C63.2668 37.0832 63.0878 36.7508 62.9088 36.4185C62.6532 36.0861 62.2441 35.8815 61.8094 35.9071C60.8634 35.9071 59.9941 36.444 59.585 37.3133C59.1759 38.1827 58.9713 39.1287 58.9969 40.0747C58.9713 41.123 59.2015 42.1457 59.7128 43.0662C60.173 44.0122 61.1446 44.6003 62.1929 44.5491C62.8577 44.5491 63.4713 44.2935 63.9827 43.8588C64.1106 43.7821 64.4429 43.3986 65.0821 42.7082C65.1588 42.6315 65.21 42.5804 65.2867 42.5804C65.3634 42.5804 65.4912 42.7082 65.4912 42.9384C65.4912 43.2452 65.3634 43.5009 65.1844 43.7054ZM75.3094 39.5378C75.3094 39.6912 75.2071 39.819 75.0537 39.8446H68.4571C68.4571 40.0491 68.406 40.2281 68.406 40.3048C68.406 41.5065 68.6106 42.5293 69.0964 43.2452C69.6077 44.1656 70.5793 44.7026 71.602 44.6514C72.2668 44.6514 72.906 44.498 73.4685 44.1912C73.9032 43.8588 74.2867 43.4753 74.6702 43.0918C74.7213 43.0406 74.7981 43.0151 74.8748 43.0151C75.0793 43.0151 75.1816 43.0918 75.1816 43.2707C75.156 43.3474 75.1304 43.4241 75.1049 43.4753C74.2611 44.9327 72.9316 45.5974 71.0907 45.5974C69.7867 45.6486 68.5083 45.1372 67.5878 44.1912C66.6929 43.2452 66.2071 41.9668 66.2583 40.6628C66.2071 39.2821 66.6929 37.9526 67.5878 36.9298C68.4571 35.8815 69.7867 35.2935 71.1674 35.3446C72.1901 35.319 73.1617 35.677 73.9287 36.3162C74.8492 37.0577 75.2839 38.1571 75.3094 39.5378ZM73.1873 38.5918C73.1106 36.8531 72.3691 35.9582 71.0907 35.9838C69.6844 35.9838 68.8151 37.0065 68.5338 39.052H71.2952C72.5992 39.0008 73.2384 38.873 73.1873 38.5918ZM88.2981 30.5889C88.2981 30.7935 88.2214 31.0236 88.0935 31.177C87.9657 31.3304 87.7611 31.4327 87.531 31.4327C87.1731 31.4327 86.8918 31.177 86.6873 30.6656C86.4827 30.1543 86.227 29.8986 85.8691 29.8986C85.102 29.8986 84.514 30.3588 84.0282 31.2537C83.6958 32.0207 83.4401 32.7878 83.2611 33.606L82.6731 35.7026H84.8975C85.102 35.7026 85.2043 35.7793 85.2043 35.9582C85.2299 36.1884 85.0509 36.3929 84.8208 36.4185C84.7952 36.4185 84.7696 36.4185 84.7185 36.4185H82.5452L80.3208 44.7537C79.9884 46.2366 79.477 47.6685 78.7867 49.0491C77.8407 50.7111 76.7412 51.5548 75.335 51.5548C74.8492 51.5804 74.3634 51.427 73.9799 51.1202C73.5963 50.8389 73.3662 50.4043 73.3918 49.9185C73.3918 49.2281 73.6986 48.9469 74.2867 48.9469C74.7213 48.9469 74.977 49.1259 75.0537 49.4071C75.1049 49.7139 75.1049 50.0207 75.1049 50.3531C75.1049 50.7111 75.2839 50.8645 75.5651 50.8645C76.2043 50.8645 76.7668 50.302 77.227 49.1514C77.5339 48.3332 77.7895 47.4895 77.9941 46.6457L80.7299 36.3418H78.4287C78.3009 36.3418 78.2242 36.2651 78.2242 36.0861C78.2242 35.7281 78.352 35.6258 78.6589 35.6258H80.8833C81.4713 33.7082 82.0339 32.302 82.6219 31.4582C83.5935 29.9241 84.7441 29.106 86.2015 29.106C86.7128 29.106 87.1986 29.2338 87.6589 29.4639C88.0168 29.694 88.2725 30.1287 88.2981 30.5889ZM92.0566 38.8474C92.031 40.4071 91.5708 41.9412 90.7015 43.2452C89.6787 44.7793 88.4003 45.5974 86.9685 45.5974C86.0736 45.6486 85.2299 45.1884 84.7441 44.4469C84.2583 43.7054 84.0026 42.8361 84.0282 41.9668C84.0537 40.4071 84.5395 38.873 85.4344 37.569C86.5083 35.9838 87.7356 35.2168 89.1674 35.2168C90.0623 35.1656 90.906 35.6258 91.3918 36.3673C91.8776 37.1088 92.1077 37.9781 92.0566 38.8474ZM90.4458 37.6457C90.4458 36.444 90.0111 35.8048 89.2185 35.8048C88.2725 35.8048 87.4287 36.7764 86.6617 38.7452C86.0736 40.0491 85.7412 41.481 85.6901 42.9128C85.6901 44.1912 86.1248 44.8304 87.0196 44.8304C87.9145 44.8304 88.7583 43.8588 89.5253 41.8389C90.0623 40.5349 90.3691 39.1031 90.4458 37.6457ZM100.98 36.3929C100.98 36.6486 100.903 36.8787 100.775 37.1088C100.647 37.3134 100.417 37.4412 100.187 37.4668C99.9316 37.4668 99.7526 37.2878 99.5992 37.0065C99.4202 36.6997 99.2924 36.5463 99.0878 36.5463C98.2697 36.5463 96.9657 39.4355 95.0736 45.2651H93.335C93.7697 43.7821 94.2299 42.2736 94.6645 40.7395C95.3549 38.3616 95.6873 37.0321 95.6873 36.7253C95.6873 36.4185 95.5594 36.3418 95.3293 36.3418C94.9458 36.3418 94.5623 36.5974 94.1787 37.0577C93.9231 37.4412 93.6674 37.8758 93.4628 38.2849C93.4117 38.4383 93.2583 38.5406 93.0793 38.5406C92.8748 38.5406 92.7214 38.4639 92.7214 38.2849L92.7725 38.2082C92.977 37.4412 93.3861 36.7764 93.9231 36.2139C94.4089 35.6259 95.1503 35.2679 95.9174 35.2423C96.6844 35.2423 97.1191 35.7026 97.1191 36.5974C97.1191 36.9554 97.0679 37.2878 96.9401 37.6202C96.8634 37.9781 96.7356 38.3105 96.6333 38.6429C97.7327 36.3418 98.8066 35.1912 99.7782 35.1912C100.085 35.1912 100.392 35.319 100.596 35.5491C100.852 35.7281 101.005 36.0605 100.98 36.3929ZM121.255 44.9838C121.255 45.1628 121.128 45.2395 120.897 45.2395H115.068C114.863 45.2395 114.71 45.1628 114.71 44.9838C114.71 44.8048 114.889 44.7281 115.221 44.6259C115.554 44.5747 115.861 44.4724 116.167 44.319C116.628 44.1145 116.883 43.2963 116.883 41.9412V31.4838L111.182 44.9327C111.054 45.2395 110.926 45.3929 110.875 45.3929C110.824 45.3929 110.67 45.1883 110.491 44.8048L105.531 33.5293C105.301 32.9923 105.045 32.481 104.713 31.9952L104.841 41.9668C104.841 42.4526 104.866 42.9383 104.917 43.4241C104.943 43.8332 105.199 44.1912 105.557 44.3702C105.608 44.3702 105.915 44.498 106.503 44.677C106.861 44.7537 107.014 44.8815 107.014 45.0349C107.014 45.1884 106.886 45.2906 106.656 45.2906H102.003C101.798 45.2906 101.645 45.2139 101.645 45.0349C101.645 44.856 101.824 44.7793 102.156 44.677C102.488 44.6258 102.795 44.5236 103.102 44.3702C103.486 44.1912 103.716 43.8077 103.741 43.3986C103.818 42.9383 103.844 42.4526 103.818 41.9923L103.946 31.1003C103.613 30.8702 103.281 30.6912 102.923 30.5122C102.591 30.4355 102.284 30.3332 101.977 30.2054C101.619 30.1287 101.466 30.0008 101.466 29.8474C101.466 29.694 101.594 29.5918 101.824 29.5918H104.483C105.505 29.5918 106.068 29.6429 106.221 29.7196C106.528 30.052 106.758 30.4355 106.912 30.8702L111.642 41.9412L116.755 29.8986C116.858 29.6685 117.088 29.5151 117.344 29.5406H120.974C121.179 29.5406 121.332 29.6173 121.332 29.7963C121.332 29.9753 121.153 30.052 120.821 30.1543C120.488 30.2054 120.182 30.3077 119.875 30.4611C119.415 30.6656 119.159 31.4838 119.159 32.8389V41.9156C119.159 43.3219 119.415 44.0889 119.875 44.2935C119.926 44.2935 120.233 44.4213 120.821 44.6003C121.102 44.7281 121.281 44.8048 121.255 44.9838ZM131.815 40.3048C131.866 41.7111 131.329 43.0662 130.358 44.0889C129.386 45.0861 128.057 45.623 126.65 45.5719C123.991 45.6997 121.716 43.6543 121.588 40.9952C121.588 40.8162 121.588 40.6372 121.588 40.4582C121.537 39.052 122.074 37.7224 123.045 36.7253C124.017 35.7537 125.372 35.2168 126.753 35.2679C128.108 35.2168 129.412 35.7537 130.383 36.7253C131.329 37.6713 131.866 38.9497 131.815 40.3048ZM129.693 40.4327C129.719 39.3844 129.514 38.3616 129.105 37.4156C128.466 36.0861 126.88 35.498 125.551 36.1372C124.988 36.4185 124.528 36.8787 124.247 37.4668C123.812 38.4128 123.633 39.4099 123.659 40.4582C123.633 41.481 123.838 42.4781 124.247 43.3986C124.656 44.3446 125.628 44.9327 126.676 44.8815C127.724 44.9071 128.67 44.319 129.105 43.3986C129.514 42.6571 129.693 41.6599 129.693 40.4327ZM150.991 44.9838C150.991 45.1628 150.863 45.2395 150.633 45.2395H145.878C145.673 45.2395 145.52 45.1628 145.52 44.9838C145.52 44.8048 145.699 44.7793 146.031 44.677C146.389 44.6258 146.721 44.498 147.003 44.319C147.182 44.1912 147.258 43.373 147.258 41.9412V39.1031C147.284 38.4383 147.182 37.7736 146.9 37.1344C146.594 36.5719 146.057 36.2906 145.187 36.2906C144.523 36.2651 143.858 36.4952 143.346 36.9298C142.861 37.3133 142.579 37.927 142.579 38.5406V41.9923C142.579 42.8872 142.63 43.3474 142.63 43.4497C142.682 43.9611 142.758 44.2935 142.886 44.3957C143.193 44.5236 143.5 44.6259 143.832 44.7026C144.19 44.7793 144.344 44.9071 144.344 45.0605C144.344 45.2139 144.216 45.3162 143.986 45.3162H139.255C139.051 45.3162 138.898 45.2395 138.898 45.0605C138.898 44.8815 139.076 44.856 139.409 44.7537C139.767 44.7026 140.099 44.5747 140.38 44.3957C140.559 44.2679 140.636 43.4497 140.636 42.0179V39.1543C140.662 38.4895 140.559 37.8247 140.278 37.1855C139.971 36.623 139.434 36.3418 138.565 36.3418C137.9 36.3162 137.236 36.5463 136.724 36.981C136.238 37.3645 135.957 37.9781 135.957 38.5918V41.9923C135.957 43.4753 136.034 44.2935 136.264 44.3702C136.571 44.498 136.878 44.6003 137.21 44.677C137.568 44.7537 137.721 44.8815 137.721 45.0349C137.721 45.1884 137.594 45.2906 137.363 45.2906H132.633C132.429 45.2906 132.275 45.2139 132.275 45.0349C132.275 44.856 132.454 44.8304 132.787 44.7281C133.119 44.7026 133.451 44.5491 133.733 44.3446C133.912 44.1656 133.988 43.3986 133.988 41.9668V37.7224C134.014 37.4668 133.963 37.1855 133.861 36.9554C133.784 36.8276 133.554 36.7764 133.17 36.7764C132.608 36.7764 132.326 36.6997 132.326 36.5207C132.326 36.3418 132.505 36.1628 132.838 36.1372C133.682 35.9582 134.525 35.7281 135.344 35.4213C135.42 35.3957 135.523 35.3702 135.599 35.3702C135.727 35.3702 135.804 35.4469 135.855 35.677C135.855 35.8048 135.906 36.1883 135.906 36.8276C136.29 36.3673 136.801 36.0094 137.363 35.8048C137.977 35.5491 138.616 35.4213 139.281 35.4213C140.815 35.4213 141.787 35.9838 142.17 37.1344C143.065 35.9838 144.292 35.4213 145.878 35.4213C147.079 35.4213 147.923 35.7793 148.383 36.3929C148.895 37.1088 149.15 38.2594 149.15 39.7935V42.0435C149.125 42.5293 149.15 43.0151 149.201 43.5009C149.253 44.0122 149.329 44.3446 149.457 44.4469C149.764 44.5747 150.071 44.677 150.403 44.7537C150.787 44.7537 150.966 44.8815 150.991 44.9838ZM153.625 45.1116C153.216 45.5463 152.551 45.5463 152.116 45.1372C151.886 44.9327 151.784 44.6259 151.784 44.3446C151.784 44.0634 151.912 43.7821 152.142 43.5776C152.321 43.3986 152.576 43.2707 152.858 43.2707C153.446 43.2707 153.932 43.7821 153.932 44.3702C153.906 44.6514 153.804 44.9071 153.625 45.1116ZM152.193 43.7054C151.835 44.0634 151.835 44.6259 152.167 44.9838C152.5 45.3418 153.088 45.3418 153.446 45.0094C153.625 44.8304 153.727 44.6003 153.727 44.3446C153.727 44.1145 153.625 43.8844 153.471 43.7054C153.113 43.3474 152.551 43.3474 152.193 43.7054ZM152.372 44.9327V43.7565H152.986C153.062 43.7565 153.139 43.7821 153.19 43.8077C153.292 43.8588 153.369 43.9866 153.369 44.1145C153.369 44.2679 153.241 44.3957 153.088 44.4213C153.088 44.4213 153.088 44.4213 153.062 44.4213C153.139 44.4213 153.19 44.4469 153.241 44.498C153.318 44.5491 153.318 44.6259 153.318 44.7537V44.9582H153.011V44.6514C153.011 44.6003 152.96 44.5747 152.934 44.5747H152.679V45.0094H152.398L152.372 44.9327ZM152.934 43.9611C152.883 43.9611 152.858 43.9099 152.755 43.9099H152.679V44.2679H152.807C152.883 44.2679 152.934 44.2679 152.986 44.2168C153.011 44.1912 153.037 44.1401 153.037 44.0889C153.011 44.0634 153.011 44.0122 152.934 43.9611Z"/></g></svg>