<svg xmlns="http://www.w3.org/2000/svg" width="199" height="53" fill="none" viewBox="0 0 199 53"><g style="mix-blend-mode:luminosity"><path fill="#1E1B1B" fill-rule="evenodd" d="M51.173 13.2765C52.3019 13.1987 52.3797 12.4781 52.3797 11.0176V3.09077C52.3797 1.63035 52.3019 0.908589 51.173 0.830775V0.558993H59.2578C59.8228 0.558993 60.2118 0.441707 60.4464 0.169922L61.4388 4.4136H61.1862C60.3291 2.52915 58.6341 1.5187 56.161 1.5187C54.7773 1.5187 54.6025 1.84912 54.6025 3.05355V4.27714H56.0832C57.4658 4.27714 57.9913 4.064 58.1481 3.05355H58.4018L59.1225 7.58819H58.8687C58.324 5.93267 57.5639 5.30902 55.8114 5.30902H54.6025V11.1146C54.6025 12.5559 54.6803 13.1806 55.8103 13.2765V13.5494H51.173V13.2765ZM66.949 0.830775C65.819 0.92776 65.7411 1.5514 65.7411 2.99265V11.1146C65.7411 12.5559 65.819 13.1795 66.949 13.2765V13.5494H62.3117V13.2765C63.4417 13.1795 63.5184 12.5559 63.5184 11.1146V2.99265C63.5184 1.5514 63.4417 0.92776 62.3117 0.830775V0.557866H66.949V0.830775ZM72.5132 11.0176V7.33557C73.253 7.1416 73.9533 6.9465 74.5759 6.67359C76.6768 9.30347 77.6873 11.2906 77.6873 12.5367C77.6873 12.9269 77.5125 13.0825 77.0275 13.2765V13.5494H81.0897V13.2765C80.1356 13.0036 79.9991 12.2638 79.5898 11.1733C78.8524 9.22901 77.8105 7.41438 76.5032 5.79734C78.3278 4.76546 79.2199 3.90838 79.2199 2.54494C79.2199 1.24015 78.3087 0.557866 76.5415 0.557866H69.0826V0.830775C70.2126 0.908589 70.2904 1.62922 70.2904 3.09077V11.0176C70.2904 12.4781 70.2126 13.1998 69.0826 13.2765V13.5494H73.7199V13.2765C72.591 13.1987 72.5132 12.4781 72.5132 11.0176ZM81.9174 8.50503H82.2478C82.9504 11.2522 84.7266 12.7724 87.1219 12.7724C89.2635 12.7724 90.6856 11.3887 90.6856 9.79065C90.6856 8.23212 89.4778 7.666 86.9268 6.9465C84.1413 6.16724 82.4429 5.56277 82.4429 3.49675C82.4429 1.70365 83.9857 0.281567 86.4397 0.281567C88.1335 0.281567 89.1654 0.651468 89.6131 0.651468C89.9435 0.651468 90.1973 0.613129 90.4499 0.378559L91.307 4.41247H91.034C90.2356 2.36676 88.756 1.33375 86.7509 1.33375C85.2713 1.33375 84.2969 2.07468 84.2969 2.93176C84.2969 4.04258 85.5431 4.25685 87.6847 4.88049C90.9754 5.83568 92.6309 6.69276 92.6309 9.24596C92.6309 11.7789 90.4691 13.8246 87.0622 13.8246C85.3875 13.8246 84.1797 13.2596 83.7117 13.2596C83.4974 13.2596 83.2425 13.3769 82.9696 13.59L81.9174 8.50503ZM105.003 4.38992H104.733C104.05 2.36225 102.687 1.54351 100.155 1.54351V11.1135C100.155 12.5559 100.252 13.1795 101.382 13.2765V13.5494H96.7269V13.2765C97.8557 13.1795 97.9539 12.5559 97.9539 11.1135V1.54351C95.4413 1.54351 94.0586 2.34195 93.3775 4.38992H93.1046L94.0203 0.342466C94.3316 0.537564 94.5853 0.556739 94.8966 0.556739H103.214C103.524 0.556739 103.798 0.537564 104.11 0.342466L105.003 4.38992ZM109.068 28.7389C107.656 31.8955 105.539 33.3818 102.463 33.3818C98.4241 33.3818 95.7198 30.9673 94.9417 26.4722L109.068 22.4608C107.693 18.2261 104.684 16.0395 100.275 16.0395C94.5334 16.0395 90.3777 20.2324 90.3777 25.5068C90.3777 31.3023 95.015 35.6948 101.721 35.6948C103.426 35.6948 105.02 35.3204 106.617 35.3204C106.915 35.3204 107.211 35.3204 107.509 35.3576L109.404 28.8506L109.068 28.7389ZM111.215 17.4954H111.067V17.0871L116.036 16.5672C116.666 17.6442 116.924 18.7212 116.961 19.8332C118.52 17.3443 120.639 16.0451 122.793 16.0451C123.276 16.0451 123.796 16.1184 124.425 16.1928L123.61 19.9065C122.755 19.4982 122.011 19.2749 121.193 19.2749C118.334 19.2749 116.997 21.5755 116.997 26.3616V30.9233C116.997 33.4472 117.332 34.5603 119.114 34.7825V35.1242H111.25V34.7825C112.662 34.7825 113.144 33.8927 113.144 31.8503V20.9812C113.147 18.719 112.477 17.4931 111.215 17.4954ZM127.084 34.7836C128.494 34.7836 128.979 33.8938 128.979 31.8515V20.9823C128.979 18.9423 128.494 18.0897 127.084 18.0897V17.7187L132.831 16.5672V30.9245C132.831 33.4484 133.166 34.5614 134.948 34.7836V35.1253H127.084V34.7836ZM133.138 11.5059C133.138 12.9551 132.063 14.0682 130.73 14.0682C129.395 14.0682 128.323 12.954 128.323 11.5059C128.323 10.0207 129.432 8.90651 130.73 8.90651C132.025 8.90538 133.138 10.0951 133.138 11.5059ZM154.055 29.8554L152.274 35.4659C151.679 35.3937 151.309 35.3554 151.122 35.3554C150.343 35.3554 149.118 35.6531 147.371 35.6531C140.762 35.6531 136.724 31.0079 136.724 25.2474C136.724 19.858 140.059 16.1139 145.18 16.1139C146.407 16.1139 147.782 16.4105 149.303 16.4105C149.936 16.4105 150.53 16.2628 151.159 16.0406L152.311 22.0514H151.976C150.638 19.4869 148.782 18.1867 146.591 18.1867C143.249 18.1867 141.058 20.7884 141.058 25.1369C141.058 30.4147 143.695 33.4258 147.743 33.4258C150.27 33.4258 152.312 32.1988 153.687 29.7471L154.055 29.8554ZM175.269 35.1287V34.778C173.227 34.1103 172.93 33.0356 172.93 30.7711V22.0898C172.93 20.0869 172.93 18.6772 171.591 17.4514C170.771 16.7093 168.799 16.0406 166.162 16.0406C162.778 16.0406 160.477 17.192 159.363 17.192C159.103 17.192 158.658 17.0804 158.027 16.821L157.138 22.9063H157.47C158.917 19.7159 161.627 18.0085 165.12 18.0085C167.721 18.0085 168.91 19.011 168.91 21.0511V22.6469C160.029 24.1682 155.728 26.5049 155.728 30.8094C155.728 33.7788 157.915 35.6993 161.702 35.6993C164.86 35.6993 167.017 34.7362 168.911 32.2935C169.098 33.4438 169.358 34.3708 169.953 35.1287H175.269ZM177.659 34.7836C179.071 34.7836 179.556 33.8938 179.556 31.8515V20.9823C179.556 18.7201 178.886 17.4954 177.624 17.4954H177.474V17.0871L182.443 16.5672C183.035 17.4954 183.295 18.7945 183.407 20.3452C185.891 17.6375 188.526 16.3033 191.273 16.3033C195.128 16.3033 196.015 18.4889 196.015 22.869V30.4023C196.015 33.2239 196.128 34.3009 198.245 34.7836V35.1253H190.048V34.7836C191.865 34.6359 192.163 33.5217 192.163 31.035V23.0923C192.163 20.123 191.68 18.7122 189.159 18.7122C187.784 18.7122 186.152 19.4542 184.892 20.7906C183.593 22.1642 183.408 23.8344 183.408 26.1711V30.9222C183.408 33.4461 183.741 34.5614 185.523 34.7836V35.1253H177.659V34.7836ZM66.1437 51.4696H72.8245C76.3475 51.4696 78.0933 50.2607 78.0933 47.7097C78.0933 45.549 76.6971 44.0288 73.8958 43.0555C75.8321 42.1398 76.8065 41.4767 76.8065 40.3264C76.8065 38.9055 75.7938 38.4758 73.6894 38.4758H66.1437V38.7487C67.2737 38.8254 67.3516 39.5483 67.3516 41.0087V48.9356C67.3516 50.396 67.2737 51.1189 66.1437 51.1956V51.4696ZM81.9727 51.1967C81.3107 51.1369 81.0186 50.8268 81.0186 50.2032C81.0186 49.8727 81.1156 49.4431 81.2904 48.9164L82.4193 45.6832C85.6717 46.0531 87.5403 47.8665 87.5403 49.9889C87.5403 50.6125 87.3069 50.9824 86.7419 51.1956V51.4685H91.1029V51.1956C90.2661 51.1358 90.0326 50.4749 89.6232 49.248L86.5073 39.9554C86.4352 39.7829 86.3955 39.5987 86.39 39.4118C86.39 39.0994 86.5457 38.9055 86.8964 38.7487V38.4758H82.8298V38.7487C83.1805 38.9055 83.3553 39.0994 83.3553 39.4118C83.3553 39.5663 83.3169 39.7423 83.238 39.9554L80.0837 48.7619C79.6157 50.0656 79.3247 50.943 78.1564 51.1956V51.4685H81.9727V51.1967ZM95.192 48.9367C95.192 50.3971 95.2698 51.12 96.401 51.1967V51.4696H92.702V51.1967C93.8308 51.12 93.929 50.3971 93.929 48.9367V41.0098C93.929 39.5494 93.832 38.8265 92.702 38.7498V38.4769H97.4159V38.7498C97.2795 38.8096 97.2208 38.9066 97.2208 39.0228C97.2208 39.1795 97.3765 39.2957 97.5716 39.4693L101.804 43.4254V39.9193C101.804 39.2562 101.784 39.0228 100.751 38.7498V38.4769H104.27V38.7498C103.14 38.8265 103.043 39.5494 103.043 41.0098V48.9367C103.043 50.3971 103.14 51.12 104.27 51.1967V51.4696H100.575V51.1967C101.707 51.12 101.804 50.3971 101.804 48.9367V46.3271L95.192 40.1336V48.9367ZM111.779 41.6132C113.219 40.5035 113.922 39.6069 113.922 39.237C113.922 38.9641 113.725 38.7701 113.395 38.7498V38.4769H118.126V38.7498C116.841 38.8468 115.808 39.6069 114.465 40.7764L113.102 41.9436C114.289 42.9766 116.062 44.9829 117.172 47.6906C117.992 49.7171 118.145 50.9238 119.411 51.1967V51.4696H115.03V51.1967C115.457 51.12 115.633 50.9035 115.633 50.4366C115.633 49.2863 114.424 46.2865 111.504 43.2698L109.713 44.6705V48.9367C109.713 50.3971 109.789 51.12 110.919 51.1967V51.4696H106.281V51.1967C107.411 51.12 107.488 50.3971 107.488 48.9367V41.0098C107.488 39.5494 107.411 38.8265 106.281 38.7498V38.4769H110.919V38.7498C109.789 38.8265 109.713 39.5494 109.713 41.0098V43.2303L111.779 41.6132ZM121.071 38.6529C121.056 38.3089 120.769 38.1995 120.519 38.1995C120.329 38.1995 120.01 38.2525 120.01 38.592C120.01 38.7814 120.144 38.8434 120.274 38.8739L120.908 39.0194C121.199 39.0882 121.414 39.2618 121.414 39.616C121.414 40.1449 120.922 40.2903 120.542 40.2903C120.129 40.2903 119.967 40.1652 119.868 40.0772C119.679 39.9058 119.641 39.7186 119.641 39.5111H119.923C119.923 39.9137 120.251 40.0332 120.538 40.0332C120.756 40.0332 121.124 39.9757 121.124 39.6565C121.124 39.4254 121.014 39.3509 120.648 39.2618L120.193 39.1558C120.047 39.1231 119.717 39.0194 119.717 38.6314C119.717 38.283 119.944 37.9424 120.486 37.9424C121.263 37.9424 121.341 38.4093 121.354 38.654L121.071 38.6529ZM123.643 40.2328V38.9134C123.643 38.8468 123.649 38.5649 123.649 38.3563H123.643L123.012 40.2328H122.714L122.084 38.3585H122.077C122.077 38.566 122.084 38.848 122.084 38.9134V40.2328H121.793V37.9999H122.225L122.863 39.89H122.868L123.504 37.9999H123.934V40.2328H123.643Z" clip-rule="evenodd"/><path fill="#1E1B1B" fill-rule="evenodd" d="M87.9824 30.4023V22.869C87.9824 18.5261 87.1625 16.3033 83.2143 16.3033C80.6104 16.3033 78.0076 17.6375 75.5525 20.3451C75.0337 17.6375 73.4774 16.3033 70.8092 16.3033C68.0259 16.3033 65.4288 17.6375 62.9432 20.3451C62.8316 18.7945 62.2237 16.6721 61.6317 15.7429C54.6521 15.0696 48.0672 17.4029 48.0672 17.4029C45.8061 18.2182 43.3984 19.3742 41.3211 21.0083C35.3058 25.738 33.3773 28.1254 31.2651 30.1914C29.1528 32.2575 27.4996 34.0483 24.6069 31.0632C21.986 28.3611 17.819 20.9056 9.88654 24.7896C8.42286 29.1369 6.95492 33.4829 5.48272 37.8273C7.38635 36.3624 9.77489 34.6054 11.4891 33.6209C14.7956 31.7218 20.3057 30.6831 24.4073 34.9663C28.5089 39.2528 30.1046 40.552 33.9581 37.9683C38.795 34.7216 40.9377 31.5391 44.1822 28.5393C45.8828 26.9661 48.1248 25.5508 50.7941 24.555C54.0228 23.3427 57.7568 23.0044 59.0898 22.9175V27.1894C55.2915 27.3834 52.25 28.3701 52.25 28.3701C50.8246 28.8303 49.3709 29.4911 48.0999 30.4362C42.1004 34.9076 40.9986 37.7225 38.3033 40.0479C35.6091 42.3755 33.3379 44.2419 29.4257 40.7831C25.2012 37.0492 20.6452 34.8298 14.4866 37.2939C9.84256 39.1502 5.86615 42.3755 2.64308 46.1546C2.31551 47.1226 1.97792 48.0873 1.63037 49.0483C0.957111 50.7625 0.0458984 51.4358 0.0458984 51.4358V52.1688H15.2219V51.3737C13.7524 51.0681 15.038 49.107 15.038 49.107C15.038 49.107 16.6304 46.2921 20.2414 43.3533C24.9824 39.4964 27.0518 41.9346 30.9561 45.5557C34.3235 48.6796 35.67 49.3528 38.2413 48.9232C40.9591 48.4698 44.6705 44.1483 44.6705 44.1483C44.6705 44.1483 51.6489 35.2099 59.3491 35.1219H65.0577V34.7802C63.2748 34.558 62.941 33.445 62.941 30.9211V26.1722C62.941 24.096 62.941 22.3886 64.4262 20.794C65.6859 19.4509 67.3177 18.7077 68.6913 18.7077C71.2141 18.7077 71.6967 20.1185 71.6967 23.0878V31.0305C71.6967 33.5171 71.399 34.6313 69.5822 34.7791V35.1208H77.782V34.7791C75.6619 34.2964 75.5502 33.2194 75.5502 30.3978V26.1665C75.5502 24.0892 75.5502 22.3818 77.0377 20.7861C78.2647 19.4497 79.865 18.7077 81.2036 18.7077C83.6959 18.7077 84.1797 20.1918 84.1797 23.0878V31.0305C84.1797 33.4799 83.882 34.6313 82.0967 34.7791V35.1208H90.1353V34.7791C88.0557 34.3009 87.9824 33.1867 87.9824 30.4023Z" clip-rule="evenodd"/><path fill="#1E1B1B" fill-rule="evenodd" d="M22.877 26.0899C22.877 26.0899 22.7732 26.1733 22.6728 26.188C24.1254 27.6473 25.2599 28.4931 26.9943 28.4931C30.0246 28.4931 31.1275 27.2526 33.0559 25.738C33.6344 25.2835 34.2795 24.6542 34.9426 23.9562L29.8171 19.3911L22.877 26.0899ZM58.8146 45.558C58.5947 44.9896 57.6936 42.6304 56.4114 39.2742C54.2157 39.7614 49.8897 41.4068 46.4241 46.9553C46.6767 47.4312 46.9192 47.933 47.1211 48.4371C47.9781 50.5776 46.2719 51.1899 46.2719 51.1899V52.1699H62.6117V51.1302C61.3249 50.2742 59.8566 48.2522 58.8146 45.558Z" clip-rule="evenodd"/><path fill="#1E1B1B" fill-rule="evenodd" d="M11.2725 20.6621C13.2325 20.0858 16.15 19.8005 18.4991 21.9725C20.2279 23.5705 21.4492 24.9384 22.4958 26.0064C22.4755 25.8587 22.5059 25.6049 22.6322 25.1719C22.8318 24.4873 24.2393 20.1512 25.6873 15.7124L20.979 11.5184C20.979 11.5184 18.7742 9.98801 21.2237 9.98801H27.5571L29.0603 5.39586C29.0603 5.39586 29.6107 3.13023 30.346 5.21204C30.5681 5.84132 31.2482 7.69983 32.0894 9.98801H38.1217C38.9179 9.98801 39.2235 10.2327 38.795 10.7222L34.0495 15.3042L36.5835 22.1619C37.5793 21.0477 38.5254 19.9753 39.2551 19.3099C40.543 18.1325 43.1131 15.8184 47.0004 14.6061L41.55 0.314269H13.2021V1.35518C15.7733 3.19113 15.5286 7.60059 14.9174 9.6824C14.7099 10.3839 13.2021 14.9117 11.2725 20.6621Z" clip-rule="evenodd"/><path fill="#fff" fill-rule="evenodd" d="M72.5132 6.37361V2.94528C72.5132 1.81529 72.6305 1.54238 74.498 1.54238C76.1705 1.54238 76.9689 1.9901 76.9689 3.12009C76.9689 4.48465 75.5096 5.45788 72.5132 6.37361ZM104.61 21.8676L94.7556 24.6531V24.281C94.7556 20.344 96.9411 17.9656 99.8676 17.9656C102.129 17.9668 103.647 19.267 104.61 21.8676ZM168.91 24.2798V25.8767C168.91 28.1017 168.725 29.808 167.683 31.1433C166.643 32.518 164.934 33.3344 163.112 33.3344C161.069 33.3344 159.844 32.183 159.844 30.4384C159.844 27.6552 162.89 25.4674 168.91 24.2798ZM69.5721 49.6201V44.5757C70.4483 44.3423 71.4802 43.9724 72.7467 43.5247C74.7709 44.4393 75.8423 45.8422 75.8423 47.3613C75.8423 49.231 74.2849 50.5753 71.4802 50.5753C69.5721 50.5764 69.5721 50.3994 69.5721 49.6201ZM69.5721 43.572V40.2994C69.5721 39.3848 69.9431 39.3261 71.8546 39.3261C73.5124 39.3261 74.3514 39.696 74.3514 40.5926C74.3514 41.7981 72.7715 42.6552 69.5721 43.572ZM82.7542 44.693L84.3319 40.1155L86.2987 45.9786C85.3051 45.0821 84.1763 44.79 82.7542 44.693Z" clip-rule="evenodd"/></g></svg>