<svg xmlns="http://www.w3.org/2000/svg" width="142" height="52" fill="none" viewBox="0 0 142 52"><path fill="#fff" d="M27.46 51.7378V29.6041H50.8372L53.3453 32.8819L55.9364 29.6041H140.79V50.2113C140.79 50.2113 138.571 51.7157 136.004 51.7378H89.0193L86.1915 48.2487V51.7378H76.9249V45.7819C76.9249 45.7819 75.6591 46.6132 72.9225 46.6132H69.7684V51.7378H55.7381L53.2336 48.3897L50.6906 51.7378H27.46Z"/><path fill="#fff" d="M0.160156 12.9219L5.43182 0.601196H14.5486L17.5403 7.50275V0.601196H28.8733L30.6543 5.58942L32.3809 0.601196H83.2544V3.10895C83.2544 3.10895 85.9288 0.601196 90.3239 0.601196L106.83 0.659026L109.771 7.47024V0.601196H119.255L121.865 4.51369V0.601196H131.436V22.7348H121.865L119.363 18.8097V22.7348H105.429L104.028 19.2458H100.282L98.9035 22.7348H89.4538C85.6719 22.7348 83.2544 20.2783 83.2544 20.2783V22.7348H69.0065L66.1787 19.2458V22.7348H13.198L11.7977 19.2458H8.06367L6.67325 22.7348H0.160156V12.9219Z"/><path fill="#1E5FDA" d="M7.29587 3.33026L0.185547 19.9032H4.81473L6.12668 16.5846H13.7536L15.0588 19.9032H19.7899L12.6864 3.33026H7.29587ZM9.92655 7.18729L12.2513 12.9865H7.59496L9.92655 7.18729V7.18729Z"/><path fill="#1E5FDA" d="M20.2812 19.8999V3.3269L26.8596 3.3514L30.6858 14.0366L34.4203 3.3269H40.946V19.8999H36.8131V7.68822L32.4321 19.8999H28.8074L24.4142 7.68822V19.8999H20.2812Z"/><path fill="#1E5FDA" d="M43.7725 19.8999V3.3269H57.259V7.03403H47.9489V9.86887H57.0414V13.3579H47.9489V16.3018H57.259V19.8999H43.7725Z"/><path fill="#1E5FDA" d="M59.6523 3.33026V19.9032H63.7853V14.0155H65.5255L70.481 19.9032H75.5316L70.0935 13.7974C72.3253 13.6086 74.6275 11.6883 74.6275 8.70696C74.6275 5.21942 71.897 3.33026 68.8495 3.33026H59.6523V3.33026ZM63.7853 7.03737H68.5097C69.643 7.03737 70.4674 7.92609 70.4674 8.7819C70.4674 9.88293 69.3992 10.5264 68.5708 10.5264H63.7853V7.03737V7.03737Z"/><path fill="#1E5FDA" d="M80.5354 19.8999H76.3154V3.3269H80.5354V19.8999Z"/><path fill="#1E5FDA" d="M90.5409 19.8999H89.63C85.2228 19.8999 82.5469 16.419 82.5469 11.6815C82.5469 6.82701 85.1928 3.3269 90.7584 3.3269H95.3264V7.25208H90.5914C88.3321 7.25208 86.7342 9.01966 86.7342 11.7224C86.7342 14.932 88.5613 16.28 91.1935 16.28H92.2811L90.5409 19.8999Z"/><path fill="#1E5FDA" d="M99.5351 3.33026L92.4248 19.9032H97.054L98.3659 16.5846H105.993L107.298 19.9032H112.029L104.926 3.33026H99.5351ZM102.166 7.18729L104.491 12.9865H99.8342L102.166 7.18729Z"/><path fill="#1E5FDA" d="M112.512 19.8999V3.3269H117.766L124.476 13.7395V3.3269H128.609V19.8999H123.524L116.645 9.21468V19.8999H112.512Z"/><path fill="#1E5FDA" d="M30.2881 48.9027V32.3298H43.7746V36.0369H34.4645V38.8717H43.5571V42.3608H34.4645V45.3047H43.7746V48.9027H30.2881Z"/><path fill="#1E5FDA" d="M96.3701 48.9027V32.3298H109.857V36.0369H100.547V38.8717H109.596V42.3608H100.547V45.3047H109.857V48.9027H96.3701Z"/><path fill="#1E5FDA" d="M44.297 48.9027L50.8635 40.7185L44.1406 32.3298H49.3476L53.3514 37.5156L57.3688 32.3298H62.3719L55.7374 40.6163L62.316 48.9027H57.1098L53.2223 43.7986L49.4292 48.9027H44.297Z"/><path fill="#1E5FDA" d="M62.8066 32.3331V48.9061H67.0484V43.6725H71.3988C75.08 43.6725 77.8702 41.7148 77.8702 37.9074C77.8702 34.7534 75.6818 32.3331 71.9359 32.3331H62.8066V32.3331ZM67.0484 36.0811H71.63C72.8192 36.0811 73.6692 36.8118 73.6692 37.9892C73.6692 39.0953 72.8235 39.8973 71.6164 39.8973H67.0484V36.0811Z"/><path fill="#1E5FDA" d="M79.666 32.3298V48.9027H83.799V43.015H85.5392L90.4947 48.9027H95.5453L90.1072 42.7969C92.339 42.6081 94.6412 40.6878 94.6412 37.7064C94.6412 34.2189 91.9107 32.3298 88.8632 32.3298H79.666V32.3298ZM83.799 36.0369H88.5233C89.6566 36.0369 90.4811 36.9256 90.4811 37.7814C90.4811 38.8825 89.4129 39.5259 88.5845 39.5259H83.799V36.0369V36.0369Z"/><path fill="#1E5FDA" d="M111.772 48.9027V45.3047H120.043C121.267 45.3047 121.797 44.6417 121.797 43.9145C121.797 43.2178 121.269 42.5134 120.043 42.5134H116.305C113.057 42.5134 111.247 40.529 111.247 37.5497C111.247 34.8924 112.904 32.3298 117.732 32.3298H125.78L124.04 36.0587H117.079C115.749 36.0587 115.339 36.7586 115.339 37.4271C115.339 38.1141 115.845 38.8717 116.862 38.8717H120.777C124.399 38.8717 125.971 40.9313 125.971 43.6283C125.971 46.5279 124.219 48.9027 120.58 48.9027H111.772Z"/><path fill="#1E5FDA" d="M126.94 48.9027V45.3047H135.211C136.435 45.3047 136.965 44.6417 136.965 43.9145C136.965 43.2178 136.437 42.5134 135.211 42.5134H131.473C128.224 42.5134 126.415 40.529 126.415 37.5497C126.415 34.8924 128.072 32.3298 132.9 32.3298H140.948L139.208 36.0587H132.247C130.917 36.0587 130.507 36.7586 130.507 37.4271C130.507 38.1141 131.013 38.8717 132.03 38.8717H135.945C139.567 38.8717 141.139 40.9313 141.139 43.6283C141.139 46.5279 139.387 48.9027 135.748 48.9027H126.94Z"/></svg>