<svg xmlns="http://www.w3.org/2000/svg" width="43" height="52" fill="none" viewBox="0 0 43 52"><path fill="#1E1B1B" d="M41.0321 18.0354C40.7355 18.2655 35.4986 21.2164 35.4986 27.7778C35.4986 35.3672 42.1624 38.0522 42.3618 38.1186C42.3311 38.2823 41.3032 41.7957 38.8484 45.3756C36.6595 48.5259 34.3735 51.6711 30.8959 51.6711C27.4183 51.6711 26.5233 49.6511 22.5087 49.6511C18.5964 49.6511 17.2053 51.7376 14.0243 51.7376C10.8433 51.7376 8.62378 48.8226 6.07182 45.2427C3.11585 41.0388 0.727539 34.5081 0.727539 28.3097C0.727539 18.3678 7.19182 13.0951 13.5538 13.0951C16.9343 13.0951 19.7522 15.3147 21.8745 15.3147C23.8946 15.3147 27.0449 12.9622 30.8908 12.9622C32.3483 12.9622 37.5852 13.0951 41.0321 18.0354ZM29.065 8.75321C30.6555 6.86609 31.7806 4.24765 31.7806 1.6292C31.7806 1.2661 31.75 0.897878 31.6835 0.601257C29.0957 0.698426 26.017 2.32473 24.1606 4.47778C22.703 6.13477 21.3427 8.75321 21.3427 11.4075C21.3427 11.8064 21.4092 12.2053 21.4398 12.3331C21.6035 12.3638 21.8694 12.3996 22.1354 12.3996C24.4572 12.3996 27.3774 10.8449 29.065 8.75321Z"/></svg>