<svg xmlns="http://www.w3.org/2000/svg" width="58" height="35" fill="none" viewBox="0 0 58 35"><path fill="#252F3E" d="M16.7078 12.501C16.7078 13.2023 16.7847 13.7731 16.9175 14.1901C17.069 14.6071 17.26 15.0638 17.5256 15.5577C17.6211 15.7091 17.6584 15.8606 17.6584 15.9934C17.6584 16.1821 17.5442 16.3731 17.2973 16.5618L16.1021 17.3586C15.932 17.4728 15.7596 17.5287 15.6082 17.5287C15.4195 17.5287 15.2284 17.4332 15.0397 17.2631C14.7741 16.9789 14.5458 16.6736 14.3571 16.3708C14.1684 16.0469 13.9773 15.6881 13.7676 15.2501C12.2859 16.9975 10.4267 17.8688 8.18779 17.8688C6.59421 17.8688 5.32214 17.4122 4.39022 16.5012C3.46063 15.5903 2.98535 14.3741 2.98535 12.8574C2.98535 11.2429 3.55382 9.93355 4.71173 8.94805C5.86964 7.96255 7.4073 7.4663 9.362 7.4663C10.0074 7.4663 10.6713 7.52221 11.3749 7.61774C12.0762 7.71326 12.7985 7.86469 13.558 8.03477V6.64854C13.558 5.2064 13.2551 4.19993 12.6657 3.61049C12.0576 3.02105 11.0325 2.73681 9.57168 2.73681C8.90769 2.73681 8.22273 2.8137 7.52146 2.98377C6.82019 3.15385 6.13523 3.36353 5.47124 3.62913C5.16837 3.76193 4.94005 3.83881 4.80725 3.87609C4.67445 3.91336 4.57893 3.932 4.50438 3.932C4.23878 3.932 4.10599 3.74329 4.10599 3.34256V2.41297C4.10599 2.1101 4.14326 1.88178 4.23878 1.74898C4.3343 1.61618 4.50438 1.48338 4.76998 1.35059C5.43397 1.00811 6.23076 0.723872 7.16268 0.495553C8.09226 0.248594 9.08009 0.134434 10.1238 0.134434C12.3837 0.134434 14.0332 0.646989 15.098 1.6721C16.1417 2.69721 16.6729 4.25351 16.6729 6.34101V12.4917L16.7078 12.501ZM9.00088 15.3853C9.6276 15.3853 10.273 15.2711 10.9556 15.0428C11.6382 14.8145 12.2463 14.3974 12.7588 13.829C13.0617 13.4679 13.29 13.0695 13.4042 12.6151C13.5184 12.1585 13.5929 11.6087 13.5929 10.9633V10.1665C13.0431 10.0337 12.4536 9.91957 11.8456 9.84269C11.2375 9.76581 10.6504 9.72853 10.0609 9.72853C8.78887 9.72853 7.85928 9.97549 7.23257 10.488C6.60585 11.0006 6.30298 11.7228 6.30298 12.6711C6.30298 13.5634 6.5313 14.2274 7.00425 14.684C7.46322 15.157 8.12721 15.3853 9.00088 15.3853ZM24.2424 17.4355C23.8999 17.4355 23.6739 17.3796 23.5202 17.2468C23.3687 17.1326 23.2359 16.867 23.1218 16.5059L18.6602 1.83285C18.5461 1.4531 18.4901 1.20614 18.4901 1.07334C18.4901 0.770467 18.6416 0.598061 18.9468 0.598061H20.806C21.1671 0.598061 21.414 0.653979 21.5468 0.786777C21.6983 0.900937 21.8124 1.16653 21.9266 1.52765L25.1161 14.0946L28.0772 1.52765C28.1728 1.14789 28.2869 0.900937 28.4384 0.786777C28.5898 0.672617 28.8554 0.598061 29.1979 0.598061H30.7169C31.078 0.598061 31.325 0.653979 31.4764 0.786777C31.6279 0.900937 31.7607 1.16653 31.8375 1.52765L34.836 14.246L38.121 1.52765C38.2352 1.14789 38.368 0.900937 38.5008 0.786777C38.6522 0.672617 38.8992 0.598061 39.2416 0.598061H41.0076C41.3105 0.598061 41.4829 0.749499 41.4829 1.07334C41.4829 1.16886 41.4642 1.26205 41.4456 1.37621C41.427 1.49037 41.3897 1.64181 41.3128 1.85149L36.7371 16.5245C36.6229 16.9043 36.4901 17.1513 36.3387 17.2654C36.1873 17.3796 35.9403 17.4541 35.6165 17.4541H33.9833C33.6222 17.4541 33.3752 17.3982 33.2238 17.2654C33.0723 17.1326 32.9395 16.8857 32.8626 16.5059L29.9201 4.26283L26.9962 16.4873C26.9007 16.867 26.7865 17.114 26.6351 17.2468C26.4837 17.3796 26.2181 17.4355 25.8756 17.4355H24.2424ZM48.6377 17.948C47.6499 17.948 46.6644 17.8339 45.7138 17.6056C44.7656 17.3772 44.0247 17.1303 43.5308 16.8461C43.2279 16.676 43.0182 16.4849 42.9413 16.3149C42.8645 16.1448 42.8272 15.9537 42.8272 15.7837V14.8145C42.8272 14.4161 42.9786 14.225 43.2629 14.225C43.377 14.225 43.4912 14.2437 43.6053 14.281C43.7195 14.3182 43.8896 14.3951 44.0806 14.4697C44.726 14.7539 45.4296 14.9822 46.1681 15.1337C46.9276 15.2851 47.6685 15.362 48.428 15.362C49.6232 15.362 50.5551 15.1523 51.2005 14.7353C51.8458 14.3182 52.1883 13.7102 52.1883 12.932C52.1883 12.4008 52.0182 11.9628 51.6757 11.604C51.3333 11.2429 50.6879 10.9214 49.7583 10.6162L47.0068 9.76115C45.6206 9.32548 44.5955 8.68012 43.9688 7.82509C43.3421 6.98869 43.0206 6.0591 43.0206 5.0736C43.0206 4.27681 43.1906 3.57321 43.5331 2.96746C43.8756 2.35939 44.3299 1.82819 44.9007 1.41116C45.4692 0.975489 46.1145 0.651647 46.874 0.423327C47.6335 0.195007 48.4303 0.0994873 49.2667 0.0994873C49.6838 0.0994873 50.1218 0.118124 50.5388 0.176369C50.9745 0.232284 51.3752 0.309167 51.7736 0.38605C52.1534 0.481572 52.5145 0.574764 52.8546 0.688924C53.1948 0.803084 53.4627 0.917246 53.6514 1.03141C53.917 1.18284 54.1081 1.33428 54.2199 1.50668C54.334 1.65812 54.39 1.8678 54.39 2.1334V3.02571C54.39 3.4241 54.2385 3.63379 53.9543 3.63379C53.8029 3.63379 53.5559 3.5569 53.2321 3.40546C52.151 2.91155 50.9349 2.66459 49.5882 2.66459C48.5072 2.66459 47.6522 2.83466 47.0627 3.19578C46.4733 3.5569 46.1704 4.10673 46.1704 4.88488C46.1704 5.41608 46.3592 5.87272 46.7389 6.23384C47.1187 6.59496 47.8199 6.95607 48.8264 7.27759L51.522 8.13262C52.8896 8.56829 53.8751 9.17637 54.4645 9.95452C55.054 10.7327 55.3382 11.625 55.3382 12.6128C55.3382 13.4282 55.1681 14.1691 54.8443 14.8145C54.5018 15.4598 54.0475 16.0283 53.458 16.4849C52.8686 16.9602 52.1673 17.3004 51.3519 17.5473C50.4969 17.8152 49.6046 17.948 48.6377 17.948Z"/><path fill="#F90" fill-rule="evenodd" d="M52.2234 27.1741C45.9772 31.7871 36.905 34.2357 29.1025 34.2357C18.1687 34.2357 8.31604 30.1911 0.874669 23.472C0.285231 22.9408 0.818759 22.2186 1.52003 22.6356C9.56947 27.3045 19.4967 30.1329 29.7665 30.1329C36.6953 30.1329 44.3067 28.6908 51.3124 25.7296C52.3585 25.2566 53.2485 26.4145 52.2234 27.1741Z" clip-rule="evenodd"/><path fill="#F90" fill-rule="evenodd" d="M54.8258 24.2129C54.029 23.1878 49.5488 23.7189 47.5172 23.9659C46.9091 24.0428 46.8159 23.5093 47.3658 23.1109C50.935 20.604 56.8014 21.3263 57.4841 22.1626C58.1667 23.0177 57.2954 28.8818 53.9521 31.6915C53.4395 32.1272 52.9456 31.9012 53.174 31.3304C53.9335 29.4526 55.6226 25.2193 54.8258 24.2129Z" clip-rule="evenodd"/></svg>