<svg xmlns="http://www.w3.org/2000/svg" width="144" height="52" fill="none" viewBox="0 0 144 52"><g style="mix-blend-mode:luminosity"><path fill="#D03027" d="M97.2306 37.5839C97.2226 37.592 97.2145 37.592 97.2145 37.6C91.1458 41.8946 83.9613 46.406 76.2309 51.1422L75.9259 51.3188C75.8215 51.3911 75.7974 51.5355 75.8697 51.6399C75.9419 51.7443 76.0864 51.7683 76.1908 51.6961L76.4477 51.5596C83.006 48.14 90.5357 44.0781 98.1136 39.9119C98.1537 39.8878 98.1939 39.8637 98.234 39.8477C97.8166 39.1573 97.4714 38.4027 97.2306 37.5839V37.5839ZM137.046 5.35395C127.486 -5.19405 65.9559 4.29433 39.7946 10.0098L39.1845 10.1383C39.0561 10.1624 38.9758 10.2828 38.9999 10.4032C39.0239 10.5316 39.1444 10.6119 39.2648 10.5878L39.8668 10.4674C61.5408 6.60622 106.623 1.25998 116.32 10.8768C119.282 13.8148 118.575 17.5877 115.14 22.0509C116.986 23.239 118.302 25.1094 118.897 27.4453C132.302 18.551 141.301 10.05 137.046 5.35395V5.35395Z"/><path fill="#004977" d="M101.1 34.8127C101.22 38.5214 103.572 41.5637 106.631 41.5637C112.563 41.5637 115.092 34.2749 114.915 29.4103C114.787 25.6936 112.378 22.6592 109.32 22.6592C104.223 22.6512 100.923 29.908 101.1 34.8127V34.8127ZM97.9692 34.612C97.7525 28.2784 102.713 21.8003 109.922 21.8003C114.738 21.8003 117.893 25.0113 118.07 29.932C118.303 36.6108 113.663 42.7438 106.125 42.7438C101.293 42.7438 98.1378 39.5408 97.9692 34.612V34.612Z"/><path fill="#004977" d="M29.6972 32.9434C29.4403 33.0397 29.1112 33.136 28.6938 33.2243C28.2844 33.3207 27.5298 33.4491 26.4381 33.6257C25.6835 33.7461 25.1617 33.8986 24.8647 34.1154C24.5837 34.3241 24.4152 34.5729 24.367 34.886C24.3108 35.2151 24.4152 35.472 24.6961 35.6807C24.9851 35.8814 25.4668 35.9858 26.1491 35.9858C26.6628 35.9858 27.1605 35.9055 27.6422 35.7449C28.1319 35.5844 28.5493 35.3677 28.8623 35.0947C29.0951 34.894 29.2637 34.6372 29.3922 34.3241C29.4724 34.1154 29.5768 33.6578 29.6972 32.9434V32.9434ZM35.9586 29.0501C35.9345 29.6281 35.8301 30.1418 35.6776 31.0329L34.618 36.9812C34.5297 37.511 34.7223 37.9204 35.212 38.2094L35.1799 38.4421L29.1112 38.4341L29.055 36.925C28.172 37.4548 27.1043 37.9043 26.1411 38.1692C25.1778 38.4181 24.3991 38.5224 23.2351 38.5224C21.2765 38.5224 20.1526 38.3217 19.374 37.6394C18.5873 36.941 18.202 36.4754 18.2421 35.5122C18.2742 34.9583 18.5632 34.2438 18.9726 33.7461C19.39 33.2404 19.968 32.9113 20.5861 32.6143C21.2122 32.3172 21.9508 32.1005 23.0184 31.9319C24.0941 31.7553 25.5872 31.5868 27.586 31.4182C28.6376 31.3299 29.2798 31.0891 29.5768 30.9686C29.9942 30.8081 30.1628 30.6235 30.219 30.2863C30.3314 29.6762 30.1387 29.323 29.3199 29.1625C27.1365 28.729 23.0345 29.4434 20.9233 29.9652L22.0712 26.8667C24.8567 26.4573 27.4656 26.2004 30.219 26.2004C34.61 26.2004 36.0067 27.4446 35.9586 29.0501V29.0501Z"/><path fill="#004977" d="M53.5552 38.4332L55.6584 26.5446H61.4702L59.367 38.4332H53.5552ZM55.9795 23.7912C56.1561 22.8119 57.6973 22.0252 59.4152 22.0252C61.1411 22.0252 62.4014 22.8199 62.2328 23.7912C62.0482 24.7706 60.5149 25.5653 58.781 25.5653C57.0631 25.5653 55.8109 24.7706 55.9795 23.7912V23.7912Z"/><path fill="#004977" d="M82.1084 32.9661C81.8435 33.0544 81.5063 33.1507 81.0969 33.2471C80.6875 33.3434 79.9329 33.4638 78.8412 33.6404C78.0947 33.7608 77.5649 33.9133 77.2759 34.1301C76.9949 34.3308 76.8344 34.5876 76.7702 34.8927C76.7059 35.2218 76.8263 35.4867 77.0993 35.6874C77.3963 35.8881 77.8779 35.9844 78.5603 35.9844C79.066 35.9844 79.5637 35.9121 80.0534 35.7596C80.5511 35.5911 80.9605 35.3823 81.2815 35.1094C81.5063 34.9087 81.6749 34.6438 81.7953 34.3388C81.8756 34.1381 81.9799 33.6805 82.1084 32.9661V32.9661ZM88.3697 29.0648C88.3456 29.6508 88.2413 30.1645 88.0807 31.0475L87.0292 37.0039C86.9409 37.5257 87.1335 37.9431 87.6232 38.2321L87.5911 38.4408L81.5224 38.4488L81.4742 36.9316C80.5912 37.4695 79.5155 37.919 78.5603 38.1759C77.597 38.4328 76.8183 38.5371 75.6383 38.5371C73.6796 38.5371 72.5638 38.3444 71.7851 37.6541C70.9904 36.9477 70.6131 36.4901 70.6533 35.5268C70.6774 34.9649 70.9664 34.2505 71.3838 33.7608C71.8012 33.2471 72.3792 32.926 73.0053 32.6289C73.6314 32.3319 74.37 32.1152 75.4296 31.9386C76.5052 31.77 78.0064 31.5934 80.0052 31.4248C81.0488 31.3365 81.6909 31.1037 81.988 30.9833C82.4134 30.8228 82.574 30.6382 82.6382 30.293C82.7425 29.6909 82.5579 29.3377 81.7471 29.1691C79.5476 28.7357 75.4617 29.4501 73.3505 29.9719L74.4904 26.8733C77.2839 26.4639 79.8848 26.207 82.6382 26.207C87.0131 26.2151 88.4099 27.4673 88.3697 29.0648V29.0648Z"/><path fill="#004977" d="M17.4567 34.1625C15.5622 34.5398 14.5026 34.6843 12.6322 34.6843C9.85474 34.6843 7.64721 33.3036 7.76762 30.7749C7.85592 29.0892 9.84671 25.5411 14.912 25.5411C16.5094 25.5411 17.7537 25.822 19.4314 26.7773L20.1699 22.6512C17.8902 21.7923 16.381 21.6638 14.4223 21.6799C7.77565 21.7521 1.4019 24.7705 0.607183 30.9114C-0.195556 37.1487 7.42244 38.714 10.802 38.698C12.7526 38.69 14.7836 38.6097 16.678 38.417L17.4567 34.1625Z"/><path fill="#004977" d="M64.6727 26.4787L65.0902 24.0544L71.1669 22.7299L70.5167 26.4707H73.4949L72.9329 28.8628L70.0431 28.8548L68.2851 38.4154C68.2851 38.4154 62.4331 38.3753 62.409 38.4154L64.159 28.8789H61.9595L62.409 26.4707H64.6727V26.4787Z"/><path fill="#004977" d="M97.0978 22.0091L94.2722 38.4251L88.356 38.4332L91.3341 21.8486L97.0978 22.0091Z"/><path fill="#004977" d="M45.8667 29.3298C45.1041 29.3298 44.4138 29.5626 43.8037 30.0202C43.1936 30.4858 42.8083 31.1601 42.6558 32.0511C42.4711 33.0867 42.5835 33.8332 42.9929 34.2908C43.4103 34.7483 44.0044 34.9811 44.7911 34.9811C45.3209 34.9811 45.8667 34.8848 46.2681 34.6841C46.7658 34.4192 47.111 34.1463 47.408 33.7048C47.7291 33.2472 47.9378 32.7335 48.0502 32.1394C48.2188 31.2002 48.0743 30.5018 47.6408 30.0362C47.2153 29.5707 46.6293 29.3298 45.8667 29.3298V29.3298ZM35.2866 42.5349L38.1203 26.6085H43.2257L42.8324 28.6395C43.2739 28.0294 43.9803 27.5317 44.9596 27.1303C45.947 26.729 47.0548 26.4319 48.2589 26.4319C49.5914 26.4319 50.4102 26.5042 51.4056 27.0179C52.393 27.5397 53.0914 28.2943 53.4606 29.2736C53.846 30.2369 53.9262 31.3287 53.7175 32.5087C53.3723 34.4754 52.4171 36.0167 50.8437 37.1565C49.2864 38.2964 47.8816 38.5935 45.8828 38.6015C45.1764 38.6015 44.5823 38.5292 44.0927 38.4088C43.611 38.2804 43.2257 38.1279 42.9367 37.9432C42.6558 37.7586 42.3588 37.4937 41.9815 37.0763L41.0342 42.5349H35.2866Z"/><path fill="#004977" d="M140.781 30.7909C140.749 29.8357 140.267 29.1855 139.279 29.1855C136.895 29.1855 134.359 33.8574 133.925 35.7358C137.835 35.7439 140.877 33.4159 140.781 30.7909V30.7909ZM141.294 38.1119L141.752 38.425C140.588 40.7931 138.22 42.6956 135.442 42.6956C133.171 42.6956 131.3 41.1784 131.204 38.3367C131.019 33.2393 135.796 28.5112 139.705 28.5112C141.383 28.5112 142.94 29.2417 143.004 31.0478C143.149 35.1017 137.457 36.3379 133.708 36.4262C133.588 36.8516 133.54 37.2771 133.564 37.9193C133.628 39.597 134.64 41.0098 136.743 41.0098C138.557 41.0098 140.371 39.5488 141.294 38.1119V38.1119Z"/><path fill="#004977" d="M117.982 30.6639C118.383 30.6077 119.033 30.5354 119.314 30.5354C119.74 30.5354 120.141 30.6157 120.165 31.0412C120.173 31.29 119.724 33.0962 119.627 33.5136L118.72 37.5113C118.351 39.1488 117.958 40.8587 117.604 42.2153H119.932L121.241 35.8817C125.231 31.7235 126.772 30.3669 127.711 30.3669C128.136 30.3669 128.425 30.5916 128.45 31.0974C128.474 31.8279 128.016 33.4895 127.864 33.9712L126.531 38.5869C126.226 39.6225 126.001 40.5617 126.025 41.2279C126.065 42.2394 126.675 42.6889 127.591 42.6889C129.292 42.6889 130.529 40.9149 131.604 39.1729L131.291 38.603C130.858 39.3014 129.846 40.8346 129.052 40.8346C128.803 40.8346 128.562 40.666 128.554 40.2486C128.53 39.7108 128.755 38.9 128.915 38.3622L130.4 32.9517C130.802 31.4586 130.986 30.5033 130.978 29.9896C130.938 28.9781 130.352 28.5045 129.445 28.5045C127.912 28.5045 125.881 29.6284 121.57 34.5813H121.506L122.052 32.165C122.349 30.8405 122.638 29.4598 122.911 28.5045C121.417 29.0424 119.282 29.6444 117.966 29.9013L117.982 30.6639Z"/></g></svg>