<svg width="159" height="30" viewBox="0 0 159 30" fill="none" xmlns="http://www.w3.org/2000/svg">
<g style="mix-blend-mode:luminosity">
<path fill-rule="evenodd" clip-rule="evenodd" d="M158.478 0.169922H129.002V29.6463H158.478V0.169922ZM133.12 25.5259V4.23123H154.356V25.5259H133.12ZM146.234 6.78437L135.616 22.4519H141.011L151.979 6.66867L146.234 6.78437ZM0.477539 17.5199V29.4716L5.58352 29.4725C7.09184 29.4725 8.31048 28.834 9.23861 27.6154C10.1093 26.4558 10.5155 25.0632 10.5155 23.4966C10.5155 21.8718 10.1093 20.5374 9.35431 19.4336C8.42618 18.1584 7.20838 17.5199 5.58352 17.5199H0.477539ZM2.9731 27.3257V19.6659H5.29385C6.16455 19.6659 6.86128 20.0712 7.32492 21.0002C7.73198 21.6961 7.90596 22.5668 7.90596 23.4958C7.90596 24.5979 7.73198 25.4686 7.32492 26.1645C6.86128 26.9186 6.22282 27.3257 5.29385 27.3257H2.9731ZM20.0316 26.6872H17.7109C17.5952 27.0352 17.3629 27.2683 17.015 27.4414C16.7245 27.5562 16.3182 27.6736 15.9129 27.6736C15.3901 27.6736 14.9839 27.4414 14.5777 26.976C14.288 26.5698 14.1132 26.1645 14.1132 25.7008H20.1481C20.1481 25.0624 20.0899 24.4822 19.9742 23.9011C19.8585 23.3784 19.6845 22.8565 19.4523 22.4511C18.8138 21.2325 17.6534 20.594 15.9129 20.594C14.6942 20.594 13.7078 21.0576 12.8954 21.8709C12.1404 22.6842 11.735 23.7289 11.735 24.9458C11.735 26.3376 12.1404 27.4414 12.9537 28.3121C13.7078 29.1811 14.6942 29.6464 15.9129 29.6464C16.9567 29.6464 17.8266 29.4142 18.5233 28.9505C19.3357 28.3695 19.8576 27.6736 20.0316 26.6872ZM17.7109 24.1917H14.1132C14.1123 23.9744 14.1649 23.7603 14.2662 23.5681C14.3675 23.3759 14.5145 23.2116 14.6942 23.0896C15.0422 22.7416 15.4484 22.5668 15.9129 22.5668C16.3765 22.5668 16.7827 22.7416 17.1889 23.0896C17.5369 23.3784 17.7109 23.7863 17.7109 24.1917ZM23.9198 20.7688H21.599V27.3831C21.599 28.079 21.9461 28.66 22.5272 29.0654C23.0928 29.447 23.7602 29.6495 24.4425 29.6464C25.4864 29.6464 26.3571 29.2385 27.053 28.3695V29.4716H29.3163V20.7688H27.053V26.1645C27.053 26.5707 26.879 26.9186 26.5302 27.2683C26.1831 27.5562 25.776 27.6736 25.3124 27.6736C24.9645 27.6736 24.6157 27.5562 24.326 27.3257C24.0938 27.0934 23.9198 26.8029 23.9198 26.5124V20.7688ZM33.8995 20.7688V18.2732L31.637 19.6068V20.768H30.4758V22.3928H31.637V27.7885C31.637 28.3112 31.811 28.7175 32.1589 29.0654C32.5652 29.4716 32.9705 29.6464 33.5516 29.6464C33.9578 29.6464 34.2483 29.6464 34.4797 29.589C34.6537 29.589 34.9442 29.5307 35.2347 29.4716V27.4414C35.1764 27.4414 35.1181 27.4414 35.0024 27.4988H34.6537C34.4214 27.4988 34.2483 27.4414 34.1317 27.3257C34.0152 27.2083 33.8995 27.0352 33.8995 26.8603V22.3937H35.2347V20.7688H33.8995ZM39.0055 27.4988C38.6584 27.2683 38.5418 26.9178 38.5418 26.5124H36.2211C36.2211 27.4988 36.569 28.253 37.3232 28.774C38.0774 29.3542 39.0055 29.6447 40.1667 29.6447C41.2105 29.6447 42.023 29.4125 42.7197 28.9489C43.5313 28.4844 43.9375 27.7302 43.9375 26.7438C43.9375 25.7574 43.4739 25.0607 42.5449 24.6536C42.2552 24.4796 41.3845 24.3048 40.0502 24.0743C39.1795 23.8995 38.715 23.6089 38.715 23.261C38.715 22.9705 38.8315 22.7974 39.0629 22.6225C39.296 22.5077 39.5857 22.392 39.9336 22.392C40.302 22.3907 40.6635 22.4913 40.9783 22.6825C41.2688 22.8556 41.4428 23.1461 41.501 23.4941H43.6478C43.6478 22.5077 43.2425 21.8118 42.4874 21.289C41.7907 20.8254 40.9791 20.5932 39.9345 20.5932C38.8906 20.5932 38.0199 20.8262 37.3815 21.3473C36.743 21.8701 36.3951 22.5085 36.3951 23.3218C36.3951 24.1334 36.8596 24.7144 37.7877 25.1198C37.9021 25.2343 38.7555 25.4636 40.2342 25.861L40.2824 25.8739C41.2114 26.1062 41.6176 26.4541 41.6176 26.9178C41.6176 27.2683 41.4436 27.5562 41.1531 27.6736C40.9209 27.7893 40.5729 27.8467 40.1667 27.8467C39.7022 27.8467 39.296 27.7311 39.0055 27.4988ZM46.3174 28.3121C47.1289 29.1811 48.1153 29.6464 49.334 29.6464C50.3787 29.6464 51.2494 29.2985 52.061 28.7175C52.8734 28.079 53.2796 27.2083 53.2796 26.2219H50.958C50.958 26.629 50.784 26.9178 50.4352 27.2083C50.1456 27.4988 49.7394 27.6736 49.3331 27.6736C48.753 27.6736 48.3467 27.3831 47.9988 26.9178C47.7083 26.3967 47.5343 25.7582 47.5343 24.945C47.5343 24.2491 47.7083 23.6681 47.9988 23.2627C48.3467 22.799 48.753 22.5668 49.3331 22.5668C49.7976 22.5668 50.1456 22.6833 50.4935 22.9722C50.784 23.2053 50.958 23.4958 50.958 23.9011H53.2796C53.2796 22.9722 52.8725 22.1614 52.061 21.5804C51.3068 20.9419 50.3787 20.594 49.334 20.594C48.1736 20.594 47.1872 21.0576 46.3748 21.8709C45.5624 22.7425 45.157 23.7863 45.157 24.9458C45.157 26.3376 45.5624 27.4414 46.3174 28.3121ZM57.1103 17.5199H54.7888V29.4725H57.1103V24.1351C57.1103 23.6697 57.3426 23.3235 57.6905 23.0313C58.0968 22.7433 58.5612 22.6259 59.0257 22.6259C59.4311 22.6259 59.7799 22.7433 60.0113 22.9739C60.2427 23.2061 60.4175 23.554 60.4175 24.0177V29.4725H62.68V23.0313C62.68 22.3346 62.3903 21.6961 61.8101 21.2907C61.2299 20.8271 60.534 20.5948 59.779 20.5948C59.2571 20.5948 58.7344 20.7097 58.2707 20.8271C57.8062 21.0002 57.4 21.2907 57.1103 21.6961V17.5199ZM72.4283 26.6872H70.165C69.991 27.0352 69.7588 27.2683 69.4691 27.4414L69.448 27.4483C69.1062 27.5609 68.7642 27.6736 68.3661 27.6736C67.8442 27.6736 67.3797 27.4414 67.0318 26.976C66.6839 26.5698 66.5099 26.1645 66.5099 25.7008H72.544C72.544 25.0624 72.544 24.4822 72.4283 23.9011C72.3117 23.3784 72.1378 22.8565 71.8481 22.4511C71.2096 21.2325 70.0493 20.594 68.3661 20.594C67.1475 20.594 66.1028 21.0576 65.3487 21.8709C64.5362 22.6842 64.1883 23.7289 64.1883 24.9458C64.1883 26.3376 64.5362 27.4414 65.3487 28.3121C66.1611 29.1811 67.1483 29.6464 68.3661 29.6464C69.3525 29.6464 70.2233 29.4142 70.9191 28.9505C71.7324 28.3695 72.2543 27.6736 72.4283 26.6872ZM70.1641 24.1917H66.509C66.509 23.7863 66.7413 23.3784 67.0884 23.0896C67.4372 22.7416 67.9017 22.5668 68.3653 22.5668C68.8298 22.5668 69.236 22.7416 69.5839 23.0896C69.9319 23.3784 70.1641 23.7863 70.1641 24.1917ZM78.2876 17.5199V29.4716L84.7853 29.4725C85.7143 29.4725 86.4102 29.1245 87.0487 28.4286C87.6871 27.7902 88.0351 26.9769 88.0351 25.9922C88.0351 25.4111 87.8619 24.8884 87.514 24.3673C87.1061 23.902 86.6433 23.4958 86.0623 23.2635C86.5388 23.0303 86.9409 22.6688 87.2235 22.2197C87.454 21.7544 87.5714 21.2907 87.5714 20.7697C87.5714 19.8407 87.2235 19.0857 86.585 18.4472C86.0048 17.8105 85.2507 17.5199 84.38 17.5199H78.2876ZM80.7249 22.2189V19.6659H83.7415C84.1018 19.6573 84.4527 19.7811 84.7279 20.0138C85.0176 20.3043 85.1333 20.5948 85.1333 21.0002C85.1333 21.3482 85.0176 21.6387 84.7279 21.8709C84.4382 22.1032 84.0895 22.2189 83.6841 22.2189H80.7249ZM80.7249 27.3257V24.3665L83.8572 24.3673C84.3225 24.3673 84.6705 24.4822 85.0184 24.7727C85.3089 25.0624 85.4838 25.4111 85.4838 25.8165C85.4838 26.2219 85.3089 26.5698 85.0184 26.8603C84.6705 27.2083 84.3225 27.3257 83.8572 27.3257H80.7249ZM89.7756 23.3784H92.0981C92.0981 23.0304 92.2138 22.7999 92.446 22.6234L92.4506 22.6216C92.7396 22.5073 93.0292 22.3928 93.4324 22.3928C93.8952 22.3928 94.244 22.4503 94.4762 22.6234C94.7659 22.7408 94.8816 23.0296 94.8816 23.3775C94.8816 23.6106 94.5337 23.8429 93.8378 24.016C93.7995 24.016 93.5031 24.0681 92.9146 24.1717C92.6201 24.2235 92.2525 24.2882 91.8075 24.3656C91.0517 24.4805 90.4724 24.771 90.067 25.2346C89.6591 25.7 89.4268 26.3367 89.4268 27.0343C89.4268 27.7302 89.7173 28.3687 90.2401 28.8897C90.7038 29.3551 91.3422 29.6456 92.1555 29.6456C92.7939 29.6456 93.3159 29.5299 93.7212 29.3551C94.1866 29.1803 94.5919 28.8897 94.8824 28.4844C94.9221 28.6643 94.9807 28.8395 95.0573 29.0071C95.0985 29.1298 95.1682 29.2244 95.2465 29.3308C95.2787 29.3745 95.3123 29.4203 95.3461 29.4708H97.726C97.378 29.0654 97.2032 28.6018 97.2032 28.079V22.7416C97.2032 22.1032 96.9144 21.6378 96.3916 21.2325C95.7531 20.8262 94.7667 20.594 93.4324 20.594C92.446 20.594 91.6327 20.8271 90.9368 21.2325C90.1827 21.7535 89.7756 22.4511 89.7756 23.3784ZM94.8824 25.1781V26.5124C94.7667 26.9186 94.5345 27.2683 94.1866 27.4405C93.8386 27.6728 93.4324 27.7885 93.027 27.7885C92.6191 27.7885 92.3286 27.7311 92.0981 27.5562C91.865 27.3831 91.8075 27.15 91.8075 26.7446C91.8075 26.2219 92.2138 25.8157 93.0845 25.5834C93.1863 25.5582 93.2938 25.5301 93.4075 25.5003C93.8114 25.3946 94.294 25.2683 94.8824 25.1781ZM101.556 20.7688H99.2351L99.2343 29.4716H101.555V23.728C101.744 23.389 102.001 23.0925 102.309 22.8573C102.6 22.6842 102.948 22.6251 103.411 22.6251C103.759 22.6251 104.05 22.685 104.34 22.9156C104.572 23.0904 104.688 23.3792 104.688 23.7289V29.4725H107.009V22.9156C107.009 22.2189 106.661 21.6387 106.08 21.175C105.501 20.8262 104.863 20.594 104.05 20.594C103.644 20.594 103.181 20.7097 102.658 20.8845C102.233 21.0932 101.858 21.3893 101.556 21.7535V20.7688ZM111.188 17.5199H108.868V29.4733H111.188V26.862L112.232 25.7599L114.205 29.4725H116.933L113.799 24.0768L116.642 20.7697H113.856L111.188 23.902V17.5199Z" fill="#393B8F"/>
</g>
</svg>
