<svg width="104" height="53" viewBox="0 0 104 53" fill="none" xmlns="http://www.w3.org/2000/svg">
<g style="mix-blend-mode:luminosity">
<path fill-rule="evenodd" clip-rule="evenodd" d="M0.136719 15.6648H3.53029L3.54473 15.6504V7.3903C3.54473 4.83428 3.90575 3.04363 5.11878 1.88837C6.3318 0.733111 8.88781 0.169922 11.5449 0.169922H13.711V5.07978H12.628C11.5594 5.07978 10.7651 5.33971 10.2452 5.9029C9.72538 6.45165 9.50876 7.27477 9.50876 8.34338V15.6504H13.711V20.4447H9.50876V51.7089H3.53029V20.4592H0.136719V15.6648ZM83.6336 15.6655L87.5759 45.1968L91.5038 15.6655H97.6267L91.8937 51.6952H83.1715L77.4963 15.6655H83.6336ZM103.647 45.0942H97.0336V51.708H103.647V45.0942ZM21.5674 15.6655H15.5745V51.6952H21.5674V15.6655ZM61.7263 35.7251H49.235V43.4509C49.235 45.8769 50.1304 47.5809 52.5853 47.5809C55.0402 47.5809 55.95 45.8914 55.95 43.4509V40.0284H61.7407V42.9166C61.7118 49.5593 58.0006 52.1586 52.4698 52.1586C46.939 52.1586 43.2421 49.0106 43.2277 42.9166V24.6635C43.2277 17.963 46.4191 15.2481 52.4698 15.2481C58.5204 15.2481 61.7118 17.9774 61.7263 24.6201V35.7251ZM52.5709 19.2771C49.7693 19.2771 49.235 21.3854 49.235 23.4216V30.8585H55.9355V23.4071C55.9355 21.3565 55.3724 19.2771 52.5709 19.2771ZM35.0398 31.2164C30.5199 27.2452 30.1444 26.6964 30.1444 23.765C30.1444 21.2523 30.361 19.736 32.6138 19.736C34.8665 19.736 35.1554 21.2378 35.1554 23.7939V27.1152H40.9317V21.6855C40.9172 17.4255 37.6392 15.2594 32.4838 15.2594C27.3285 15.2594 24.1082 16.9489 24.0793 23.765V24.4726C24.0793 26.6098 24.0938 30.0034 29.3935 34.5522L30.9098 35.8519C34.8088 39.1444 35.242 39.5343 35.2276 43.4477C35.2276 45.8593 35.0832 47.6933 32.5416 47.6933C30 47.6933 29.8556 45.8449 29.8556 44.7185V40.1119H23.7905V44.8629C23.7905 50.7114 27.6029 52.1699 32.5416 52.1699C37.4803 52.1699 41.2927 50.7114 41.2927 43.1733V42.5524C41.2927 37.296 40.3251 35.8808 35.0398 31.2308V31.2164ZM69.741 15.6669V19.3637L69.7988 19.2337C71.3873 15.9268 72.7447 15.3059 75.8639 15.2481V21.6309C74.2321 21.6453 72.9469 21.8908 71.9071 22.6129C70.8096 23.3638 70.1742 24.649 70.1742 26.5841V51.6965H64.2824V15.6669H69.741Z" fill="#FF6600"/>
</g>
</svg>
