<svg xmlns="http://www.w3.org/2000/svg" width="134" height="51" fill="none" viewBox="0 0 134 51"><g style="mix-blend-mode:luminosity"><path fill="#C9C9CA" d="M67.1468 0.169922C30.141 0.169922 0.477539 11.2619 0.477539 25.1685C0.477539 38.9932 30.3861 50.1699 67.1473 50.1699C103.911 50.1699 133.822 38.9545 133.822 25.1685C133.821 11.3853 103.911 0.169922 67.1468 0.169922ZM133.414 23.2382C133.437 23.3603 133.454 23.4837 133.475 23.6021C133.458 23.4842 133.433 23.3616 133.414 23.2382Z"/><path fill="url(#paint0_radial_1_12856)" d="M67.149 1.16797C30.8792 1.16797 1.49902 11.8887 1.49902 25.1556C1.49902 38.416 30.8792 49.1437 67.149 49.1437C103.423 49.1437 132.796 38.416 132.796 25.1556C132.796 11.8896 103.423 1.16797 67.149 1.16797Z"/><path fill="url(#paint1_linear_1_12856)" d="M67.4478 6.19809C98.284 6.19809 123.745 13.7315 127.635 23.4823V23.4804C125.037 13.2226 98.95 5.16406 67.1443 5.16406C33.6187 5.16406 6.44336 14.1157 6.44336 25.163C6.44336 26.0634 6.62529 26.9478 6.97258 27.8169C6.82205 27.2502 6.74542 26.6664 6.74459 26.08C6.74551 15.1009 33.9218 6.19809 67.4478 6.19809Z"/><path fill="url(#paint2_linear_1_12856)" d="M129.65 22.6611C129.915 23.4687 130.051 24.3134 130.052 25.1635C130.052 37.2577 101.888 47.0605 67.143 47.0605C36.2231 47.0605 10.5165 39.2945 5.22754 29.0689C9.24068 39.697 35.528 47.9075 67.3941 47.9426H67.7791C102.433 47.9085 130.496 38.2047 130.496 26.2312C130.497 25.0166 130.207 23.8209 129.65 22.6611Z"/><path fill="url(#paint3_linear_1_12856)" d="M79.2495 28.5335C79.1108 28.1816 79.085 27.7864 79.1647 27.3935C79.1928 27.254 79.0127 27.1287 78.8653 27.2802C77.4564 28.7491 77.3514 30.649 78.2744 31.502C78.6037 31.8088 78.9832 31.9465 79.3872 31.9723C78.7861 31.2095 78.5019 29.714 79.2495 28.5335Z"/><path fill="url(#paint4_linear_1_12856)" d="M93.5222 31.3617H93.5241C93.5959 31.2226 93.6678 31.0756 93.7447 30.9181C93.8032 30.797 93.7742 30.7629 93.724 30.7426C93.5793 30.6906 93.4296 30.5796 93.4089 30.4649C93.3992 30.4442 93.3983 30.4244 93.3965 30.4009L93.3983 30.4133C93.4167 30.6349 93.4752 31.0522 93.5222 31.3617Z"/><path fill="url(#paint5_linear_1_12856)" d="M95.1221 25.6094C95.5923 26.0603 95.8793 26.607 95.9327 27.11C95.9534 27.3481 96.1349 27.3744 96.2832 27.1666C96.3219 27.11 96.3661 27.0395 96.4182 26.9603C96.3776 26.9027 96.333 26.8474 96.2915 26.7931C95.9273 26.374 95.5367 25.9786 95.1221 25.6094Z"/><path fill="url(#paint6_linear_1_12856)" d="M75.6074 24.6841C75.9851 25.2004 76.1615 25.9378 76.1353 26.8816C76.1288 27.1261 76.3071 27.11 76.4231 26.9433C76.4895 26.8507 76.548 26.7687 76.6092 26.6844V26.6771C76.3338 25.831 75.911 25 75.6074 24.6841Z"/><path fill="url(#paint7_linear_1_12856)" d="M93.1504 27.1803C91.9888 26.6225 90.2164 27.6455 88.6126 29.6192C87.2981 31.2331 86.5897 32.8742 86.5653 34.4743C86.5551 35.0445 86.7712 35.7492 87.2732 36.0062C87.4292 36.0928 87.5991 36.1516 87.7753 36.1798C87.7189 35.9701 87.6895 35.754 87.6877 35.5368C87.6679 33.8856 88.181 32.2367 89.4988 30.6205C91.0911 28.6565 92.7662 27.6778 93.9292 28.2185C93.8693 27.7865 93.6446 27.4138 93.1504 27.1803Z"/><path fill="url(#paint8_linear_1_12856)" d="M58.4058 30.4515C59.6301 28.7916 61.0091 28.1638 62.5816 27.4844C62.7888 27.3937 62.8137 27.2767 62.7741 27.0934C62.7069 26.7802 62.4885 26.0027 62.4217 25.8157C62.4715 25.9866 62.4273 26.1174 62.2228 26.1934C60.4384 26.8709 58.6495 27.9229 57.4119 29.5806C56.008 31.4616 55.6317 33.724 56.5695 35.0275C56.7929 35.3324 57.0591 35.5586 57.3529 35.706C56.8477 34.1492 57.2166 32.0618 58.4058 30.4515Z"/><path fill="url(#paint9_linear_1_12856)" d="M67.3881 40.2971C68.5944 40.2971 70.0771 40.2971 71.0802 40.2911C71.2295 40.2828 71.3359 40.1986 71.4142 40.0871C72.9134 37.7381 74.514 35.1896 76.0459 32.8388C76.3817 34.0248 76.5544 34.5766 77.1794 35.1353C77.8155 35.7032 78.4036 35.8524 79.2691 35.8598C80.0553 35.8695 80.83 35.5553 81.7521 35.1726C82.0632 35.0399 82.3617 34.8797 82.6443 34.694C82.6443 34.2583 82.6885 33.8203 82.7659 33.4021C82.7724 33.3569 82.7281 33.0672 82.4808 33.239C81.9679 33.6119 81.4069 33.9135 80.813 34.1358C79.9637 34.4527 79.568 34.5715 78.7818 34.5641C77.7929 34.5563 76.9017 34.1358 76.2753 33.1575C75.9247 32.6292 75.7797 31.8236 75.7465 31.2322C75.7419 31.1673 75.6571 31.0521 75.5641 31.2014C73.9018 33.742 72.3496 36.1969 70.6998 38.7767C70.6137 38.8983 70.539 38.9775 70.3682 38.983C69.3489 38.983 68.2324 38.9803 67.1099 38.9867C66.9925 38.9867 66.9082 38.9328 66.8838 38.8509C66.9718 39.2447 67.1159 39.9581 67.1537 40.1249C67.1786 40.2377 67.2629 40.2971 67.3881 40.2971Z"/><path fill="url(#paint10_linear_1_12856)" d="M83.5278 38.8919C83.806 39.4262 84.4301 40.0259 84.8088 40.2143C86.9708 41.2796 90.0577 40.0719 92.0405 38.166C92.0603 38.1398 92.0649 38.1379 92.093 38.1071C92.1837 38.4493 92.2952 38.8652 92.3113 38.9228C92.4463 39.3654 92.6586 39.7675 92.8442 39.9807C94.2007 41.5136 97.0803 40.8158 100.078 38.4963C101.753 37.2011 102.995 35.9004 104.517 34.1303C104.578 34.0566 104.573 33.9479 104.539 33.7821C104.452 33.397 104.315 32.7006 104.238 32.3506C104.236 32.4091 104.215 32.4653 104.18 32.5118C102.591 34.4486 100.835 36.2794 99.1557 37.5746C96.5442 39.598 93.9372 40.1116 92.6489 38.8145C92.1667 38.3323 91.9032 37.6432 91.8715 37.0588C91.8558 36.7419 91.6951 36.7271 91.5431 36.8759C90.0038 38.4009 87.3282 40.0894 84.8894 38.8864C83.6319 38.2655 82.9761 37.1007 82.7402 35.8188C82.7421 35.8322 82.7467 35.8483 82.7499 35.8626C82.9005 36.7709 83.0981 38.0822 83.5278 38.8919Z"/><path fill="url(#paint11_linear_1_12856)" d="M82.4517 30.6206C83.254 30.1863 83.9587 29.2651 83.8712 27.7705C83.8247 27.0266 83.6096 26.2602 83.2614 25.6421C83.4981 26.093 83.5972 26.6181 83.5133 27.1713C83.3595 28.1357 82.8367 28.986 81.9482 29.4263C81.1952 29.7952 80.3154 29.7303 79.6992 29.1808C79.5141 29.0105 79.3672 28.803 79.2681 28.5719C79.4265 29.3006 79.5651 29.8362 79.7549 30.1232C80.3357 30.9992 81.3416 31.2203 82.4517 30.6206Z"/><path fill="url(#paint12_linear_1_12856)" d="M106.316 17.9989C105.81 18.8745 96.0443 33.7429 95.4271 35.2808C95.2318 35.7676 95.2087 36.1398 95.4073 36.4079C95.609 36.6778 95.9028 36.7805 96.2368 36.775C96.2709 36.587 96.3423 36.3756 96.4312 36.1522C97.0483 34.6088 106.194 20.7104 106.696 19.8307C106.738 19.7556 106.723 19.6713 106.71 19.6152C106.68 19.4756 106.373 17.998 106.344 17.8594C106.352 17.9077 106.342 17.9574 106.316 17.9989Z"/><path fill="url(#paint13_linear_1_12856)" d="M65.7837 24.9186C65.8122 24.9494 65.8348 24.9803 65.8597 25.0112C66.4474 25.8858 66.768 27.117 66.8002 28.3887C66.8352 28.6567 66.9499 28.6632 67.0798 28.5255C67.1986 28.4048 67.3147 28.2763 67.4289 28.1524C67.2571 27.4693 66.9909 26.8549 66.7169 26.2621C66.6146 26.0484 66.1687 25.282 65.7837 24.9186Z"/><path fill="url(#paint14_linear_1_12856)" d="M50.0231 38.8154C50.2009 38.9052 50.3846 38.8237 50.4731 38.7739C51.0686 38.469 52.2284 37.5773 52.7281 36.955C52.8797 36.8136 53.0252 36.9099 53.0736 37.0605C53.2822 37.7219 53.588 38.2318 53.9307 38.7744C54.3038 39.3787 55.0537 40.0051 56.025 40.2713C57.282 40.6237 58.6384 40.6858 60.4214 40.0051C61.8511 39.4579 63.3494 38.3433 64.5013 37.0909C65.884 35.5899 66.3842 34.6281 66.9079 33.9723C67.8047 32.8622 69.2007 30.896 71.1573 29.2268C71.8418 28.6414 72.5911 28.2618 73.0614 28.4461C73.3442 27.7174 73.2102 27.3153 72.9094 27.1219C72.4516 26.8239 71.5359 27.2711 70.7631 27.8607C68.6563 29.4562 66.8863 31.9415 65.9899 33.0534C65.4612 33.7074 64.9628 34.6724 63.582 36.172C61.4112 38.5284 58.533 39.883 55.7565 38.9476C54.2412 38.4382 53.1445 37.2194 52.7272 35.7225C52.6434 35.4337 52.4817 35.3526 52.3242 35.5433C51.876 36.1039 50.959 36.9269 50.193 37.4451C50.1092 37.5055 49.9019 37.628 49.7241 37.5395C49.5639 37.4668 48.995 36.6635 48.8836 36.4323C48.8695 36.4084 48.86 36.3822 48.8555 36.3549V36.365C49.0554 37.3535 49.0802 37.4686 49.3506 37.9255C49.6569 38.4294 49.9554 38.7868 50.0231 38.8154Z"/><path fill="url(#paint15_linear_1_12856)" d="M33.2809 29.9361C33.9819 28.5226 34.9685 27.8478 35.9385 27.2343C36.3558 26.9699 36.5409 26.7138 36.2927 26.0252C36.2222 25.8286 36.1826 25.4748 36.1043 25.1616C36.1292 25.4675 35.9781 25.7305 35.7077 25.8714C34.5231 26.4757 33.0971 27.5116 32.3933 28.9247C31.8213 30.0761 31.7052 31.4694 32.5766 32.7932C32.6499 32.8986 32.7291 33.0055 32.8166 33.1036H32.8175C32.5375 32.0046 32.8387 30.8209 33.2809 29.9361Z"/><path fill="url(#paint16_linear_1_12856)" d="M45.41 12.7713C49.7169 11.3509 54.5182 12.249 58.3747 13.0744C58.914 12.7377 59.3862 12.5051 59.8592 12.2458C60.0945 12.1224 59.8311 11.9754 59.7578 11.9754C54.7793 11.0409 49.6055 9.82862 44.6629 11.659C41.237 12.9376 39.7359 15.6537 40.4604 17.4671C40.5986 17.813 40.8192 18.082 41.1071 18.2731C40.8653 16.6007 42.119 13.8602 45.41 12.7713Z"/><path fill="url(#paint17_linear_1_12856)" d="M31.4009 38.8029C32.8126 39.7978 34.2027 40.1276 35.8244 40.1562C39.1186 40.2137 42.1276 38.8536 45.3186 35.6157C48.382 32.5067 51.0336 28.1619 53.6484 23.8563C53.735 23.7048 53.8276 23.637 54.2656 23.5799C55.9062 23.3777 57.376 23.2838 58.825 23.1479C59.257 23.1074 59.5854 23.0678 59.7439 23.2244C60.2671 23.748 60.876 24.2266 61.2786 24.4606C61.5462 24.4638 61.7709 24.5228 61.928 24.6632C62.097 24.6411 62.2513 24.5472 62.3513 24.45C62.5392 24.2662 62.5466 24.0511 62.5157 23.8687C62.4508 23.5108 62.354 22.8057 62.2394 22.6012C62.3186 22.7569 62.2675 22.977 62.1113 23.1534C61.9966 23.2842 61.8174 23.4081 61.5895 23.4054C61.4011 23.4008 61.2896 23.3363 61.0529 23.2064C60.5642 22.9452 59.9608 22.5127 59.555 22.0019C59.4182 21.8306 59.3478 21.826 59.0023 21.8453C57.4529 21.9356 55.0352 22.1678 53.396 22.3736C53.0008 22.4229 52.9418 22.4971 52.8594 22.6325C50.2474 26.9409 47.459 31.585 44.3969 34.6945C41.1134 38.0292 38.3821 38.9047 35.485 38.9273C32.1415 38.9508 29.1666 37.0564 28.4121 33.7277V33.7295C28.8197 35.5894 30.0177 37.827 31.4009 38.8029Z"/><path fill="url(#paint18_linear_1_12856)" d="M43.7523 24.3298C43.6792 24.2184 43.6389 24.0886 43.6363 23.9554C43.6022 24.5136 43.8274 25.3344 44.008 25.6084C44.2065 25.9143 44.7652 26.0644 45.2073 25.7346C46.2068 24.9986 47.1091 24.5698 48.1187 24.3786C48.3781 24.0235 48.6581 23.6302 48.9787 23.188C49.0068 23.1535 49.0141 23.1074 49.0022 23.0844C48.9842 23.0443 48.952 23.0328 48.887 23.03C47.4071 23.071 46.1138 23.5137 44.861 24.45C44.5003 24.7135 43.9799 24.6762 43.7523 24.3298Z"/><path fill="url(#paint19_linear_1_12856)" d="M84.0357 14.2406C81.9654 15.3769 79.802 15.7201 77.5395 15.7399C72.07 15.7845 66.9745 13.6534 61.7035 12.5084C61.7108 12.7382 61.7707 13.0141 61.5773 13.1596C58.658 15.3124 56.0184 17.5007 54.2497 20.5715C54.1912 20.6433 54.2235 20.7097 54.3262 20.7023C54.7923 20.6811 55.2432 20.6599 55.6877 20.6355C57.2984 18.1124 59.0214 16.6661 61.6523 14.7243C61.8495 14.575 62.0461 14.4714 61.9817 13.9099C67.2693 15.084 71.2902 17.0286 78.1185 17.0466C80.1562 17.0535 83.0293 16.3741 84.5751 15.4442C86.3516 14.3756 86.8241 13.5898 86.8877 12.7594C86.9084 12.5001 86.8398 12.115 86.7979 11.9165C86.7375 11.6351 86.6979 11.2758 86.6178 11.0087C86.645 11.1174 86.6574 11.2403 86.6473 11.3753C86.5934 12.3306 85.8546 13.2485 84.0357 14.2406Z"/><path fill="url(#paint20_linear_1_12856)" d="M61.1893 17.8052C61.1244 17.8669 61.0512 17.93 60.9789 17.9963C60.457 18.5366 60.2981 19.2519 60.3746 19.7931C60.4174 20.0132 60.5021 20.0561 60.6026 20.0372C60.7059 20.0143 60.8072 19.9825 60.9052 19.9423C60.942 19.6443 61.0668 19.355 61.3681 19.0897C61.5859 18.8972 61.859 18.8079 62.0926 18.8465C62.2938 18.4477 62.3514 17.9677 62.1059 17.7536C61.8701 17.55 61.4938 17.5882 61.1893 17.8052Z"/><path fill="url(#paint21_linear_1_12856)" d="M63.2932 19.6769C62.7916 20.6363 61.9644 21.1476 61.1708 21.3959C61.1708 21.3959 61.0045 21.4336 61.0294 21.5856C61.0487 21.756 61.6116 22.1125 61.963 22.3626C62.0141 22.3488 62.0906 22.3207 62.0906 22.3207C62.4978 22.1591 63.1767 21.745 63.5691 20.886C63.8206 20.3319 63.9574 19.8971 63.8482 18.946C63.769 18.2827 63.635 17.683 63.4572 17.373C63.8003 18.0681 63.6635 18.9602 63.2932 19.6769Z"/><path fill="url(#paint22_linear_1_12856)" d="M48.5981 16.2511C47.1518 19.6512 44.3882 22.3479 41.0222 22.4594C39.1398 22.5225 37.6991 21.635 36.9331 20.2813C37.4927 21.2918 38.4397 22.178 39.2835 22.7091C40.0126 23.1632 40.9122 23.4161 41.9411 23.3815C45.4485 23.2618 48.1061 20.3711 48.9877 17.929C49.2231 17.2704 49.0393 16.5648 48.9306 16.0876C48.8864 15.9052 48.826 15.4893 48.6925 15.1931H48.6911C48.7906 15.4377 48.7906 15.7979 48.5981 16.2511Z"/><path fill="#4B4B4B" d="M67.1468 0.169922C30.141 0.169922 0.477539 11.2619 0.477539 25.1685C0.477539 38.9932 30.3861 50.1699 67.1473 50.1699C103.911 50.1699 133.822 38.9545 133.822 25.1685C133.821 11.3853 103.911 0.169922 67.1468 0.169922ZM0.934446 25.4444C0.921089 22.5188 2.21075 19.612 4.92225 16.8756C14.4666 7.24784 39.4749 0.740595 67.0363 0.628211C103.547 0.476215 133.3 11.3628 133.363 24.8959C133.376 27.8225 132.01 30.6906 129.298 33.4246C119.752 43.0542 94.821 49.6025 67.262 49.7121C30.7513 49.8646 0.996165 38.9794 0.934446 25.4444ZM133.414 23.2382C133.437 23.3603 133.454 23.4837 133.475 23.6021C133.458 23.4842 133.433 23.3616 133.414 23.2382Z"/><path fill="url(#paint23_linear_1_12856)" d="M0.678711 25.1686C0.678711 25.8217 0.75563 26.4702 0.889201 27.1091C0.786154 26.5607 0.732052 26.0043 0.727534 25.4463C0.714637 22.4815 2.04022 19.4886 4.77429 16.7301C14.3721 7.04892 39.4057 0.534775 67.0357 0.418706C70.8641 0.401664 74.6157 0.508521 78.2718 0.727302C74.5683 0.494808 70.8584 0.378375 67.1476 0.378174C30.2897 0.378174 0.678711 11.4305 0.678711 25.1686Z"/><path fill="url(#paint24_linear_1_12856)" d="M129.447 33.5785C119.881 43.2228 94.8547 49.8051 67.2625 49.9198C63.4443 49.9394 59.6264 49.8355 55.8149 49.6085C59.4969 49.8434 63.2862 49.9622 67.1473 49.9622C103.796 49.9622 133.613 38.773 133.613 25.1768C133.613 24.6573 133.565 24.1428 133.481 23.6306C133.542 24.0511 133.568 24.4753 133.572 24.9014C133.588 27.8667 132.181 30.82 129.447 33.5785Z"/><path fill="#fff" d="M67.1441 3.2666C32.3975 3.2666 4.22998 13.0675 4.22998 25.1636C4.22998 37.2578 32.3975 47.0606 67.1441 47.0606C101.888 47.0606 130.052 37.2578 130.052 25.1636C130.052 13.0675 101.887 3.2666 67.1441 3.2666ZM67.1441 45.1639C33.6185 45.1639 6.44312 36.2118 6.44312 25.1631C6.44312 14.1149 33.618 5.16378 67.1441 5.16378C100.672 5.16378 127.844 14.1154 127.844 25.1631C127.844 36.2123 100.672 45.1639 67.1441 45.1639Z"/><path fill="#fff" d="M106.316 17.999C106.403 17.8466 106.313 17.7351 106.121 17.7351C105.113 17.7351 103.796 17.7383 102.751 17.7383C102.501 17.7383 102.374 17.766 102.256 17.999C101.869 18.7401 97.16 25.7959 96.2835 27.1653C96.1352 27.3739 95.9538 27.3472 95.933 27.1086C95.8464 26.2943 95.1422 25.3561 94.0349 24.9111C93.1902 24.568 92.3653 24.5063 91.5095 24.621C89.9605 24.8287 88.5815 25.6476 87.3679 26.5674C85.5388 27.9584 83.9613 29.7589 81.9264 31.0895C80.8155 31.8131 79.2923 32.4455 78.2749 31.5022C77.3518 30.6483 77.4582 28.7492 78.8658 27.2804C79.0132 27.1289 79.1933 27.2542 79.1652 27.3937C79.0311 28.0602 79.1937 28.7198 79.6981 29.1813C80.3148 29.7308 81.1941 29.7962 81.9476 29.4268C82.8375 28.9869 83.3593 28.1348 83.5122 27.1717C83.7481 25.6711 82.5938 24.3501 81.1499 24.2447C79.9786 24.1617 78.8543 24.5698 77.7595 25.474C77.2123 25.93 76.8981 26.2639 76.4242 26.9423C76.3072 27.1086 76.1294 27.1257 76.1363 26.8806C76.1902 24.9632 75.3975 23.8831 73.8108 23.849C72.5801 23.8172 71.266 24.4878 70.2403 25.3031C69.1174 26.2035 68.1354 27.4015 67.0802 28.5245C66.9503 28.6622 66.8356 28.6557 66.8006 28.3877C66.7684 27.1155 66.4478 25.8844 65.8601 25.0102C65.6496 24.7066 65.2139 24.556 64.8458 24.7614C64.6759 24.8536 64.0854 25.1262 63.6524 25.4735C63.441 25.6499 63.3586 25.9037 63.4507 26.2298C64.0172 28.1311 63.8933 30.2881 63.1232 32.1134C62.4176 33.7803 61.0432 35.2896 59.4265 35.7972C58.3639 36.1339 57.2553 35.969 56.5704 35.0253C55.6326 33.7218 56.0089 31.4594 57.4128 29.5783C58.6504 27.9206 60.4394 26.8686 62.2237 26.1911C62.4342 26.1087 62.4779 25.9746 62.4176 25.7964C62.3209 25.5034 62.1666 25.1046 62.103 24.9231C61.94 24.4888 61.4798 24.4155 60.9198 24.4773C59.6232 24.6283 58.4537 25.0719 57.2981 25.6909C54.273 27.3113 52.7562 30.4465 52.0902 32.1254C51.771 32.9328 51.4965 33.4339 51.1409 33.8812C50.6633 34.4808 50.0664 35.0262 48.9702 35.9879C48.8716 36.0768 48.7997 36.2596 48.8822 36.4314C48.9937 36.6627 49.5629 37.4659 49.7228 37.5387C49.9006 37.6271 50.1078 37.5046 50.1921 37.4443C50.9581 36.9261 51.8751 36.103 52.3233 35.5425C52.4803 35.3518 52.642 35.4329 52.7263 35.7217C53.1436 37.2186 54.2403 38.4373 55.7556 38.9467C58.5316 39.8804 61.4094 38.5276 63.5811 36.1712C64.9614 34.6715 65.4598 33.7066 65.989 33.0525C66.8858 31.9407 68.6559 29.4544 70.7617 27.8598C71.5355 27.2712 72.4507 26.8226 72.909 27.121C73.2779 27.3606 73.3976 27.9137 72.8039 28.992C70.6567 32.9162 67.4952 37.5258 66.9134 38.6404C66.8089 38.8348 66.9024 38.9887 67.105 38.9887C68.228 38.9831 69.344 38.9859 70.3633 38.9859C70.5342 38.9781 70.6088 38.8993 70.6944 38.7795C72.3443 36.1984 73.896 33.743 75.5592 31.2037C75.6518 31.0559 75.7374 31.171 75.7416 31.2341C75.7748 31.826 75.9212 32.6302 76.2699 33.1599C76.8968 34.1382 77.788 34.5587 78.7769 34.5661C79.5631 34.5753 79.9588 34.4555 80.8081 34.1382C81.4016 33.9153 81.9626 33.6139 82.4759 33.2418C82.7232 33.07 82.7675 33.3598 82.761 33.4049C82.3806 35.4531 82.849 37.8819 84.8862 38.8859C87.3255 40.0881 90.0011 38.3996 91.5399 36.8755C91.6914 36.7285 91.8522 36.7423 91.8683 37.0588C91.8992 37.6442 92.1645 38.3337 92.6458 38.8146C93.935 40.1102 96.541 39.5971 99.1526 37.5751C100.832 36.2795 102.588 34.4491 104.177 32.5118C104.232 32.4363 104.278 32.3142 104.165 32.1945C103.925 31.9416 103.575 31.6528 103.335 31.429C103.225 31.3378 103.066 31.364 102.971 31.434C101.346 32.9789 99.884 34.7448 97.7671 36.2012C97.0536 36.7014 95.9174 37.1025 95.4056 36.4116C95.2067 36.1436 95.2297 35.77 95.4254 35.2846C96.0445 33.743 105.811 18.8751 106.316 17.999ZM93.4099 30.4663C93.4306 30.5806 93.578 30.6902 93.7249 30.7436C93.7742 30.7639 93.8042 30.798 93.7447 30.9186C93.3316 31.8094 92.9493 32.3211 92.4288 33.0958C91.9517 33.8098 91.4105 34.3685 90.7592 34.9041C89.774 35.7189 88.4065 36.6042 87.2757 36.0077C86.7737 35.7488 86.5563 35.046 86.5678 34.4758C86.5936 32.8752 87.3015 31.2337 88.6151 29.6198C90.2175 27.6461 91.9904 26.6231 93.1529 27.1809C94.3546 27.7548 93.9714 29.1481 93.4334 30.2425C93.3919 30.3254 93.3873 30.3982 93.4099 30.4663Z"/><path fill="#fff" d="M35.4873 38.9296C31.8463 38.9559 28.6406 36.7031 28.2717 32.8102C28.0676 30.6523 28.6775 28.7271 29.899 27.1422C30.9823 25.73 32.8182 24.5573 34.3676 24.2699C34.8756 24.1782 35.5536 24.2381 35.8355 24.5716C36.2749 25.0842 36.1469 25.648 35.7093 25.8714C34.5247 26.4757 33.0987 27.5115 32.3949 28.9246C31.8228 30.0761 31.7068 31.4694 32.5782 32.7932C34.0424 34.9994 38.1168 35.0616 41.9061 31.5399C42.8453 30.6772 43.6845 29.8495 44.5402 28.8708C46.2085 26.9607 46.7626 26.2638 48.9817 23.1875C49.0098 23.153 49.0172 23.1069 49.0052 23.0839C48.9873 23.0438 48.955 23.0323 48.8901 23.0295C47.4102 23.0705 46.1178 23.5131 44.864 24.4495C44.5025 24.7125 43.982 24.6752 43.7545 24.3289C43.5016 23.9364 43.6826 23.4256 44.0999 23.1382C46.1178 21.7353 48.324 21.4792 50.5768 21.0983C50.5754 21.0983 50.7343 21.1047 50.8619 20.9343C51.7863 19.7487 52.4841 18.6783 53.4711 17.4771C54.4646 16.2602 55.7464 15.1447 56.727 14.3022C58.0955 13.125 58.9729 12.7293 59.8646 12.2443C60.1 12.1209 59.836 11.9739 59.7628 11.9739C54.7843 11.0394 49.6104 9.82713 44.6674 11.6575C41.2419 12.9361 39.7404 15.6522 40.4649 17.4656C40.9762 18.7525 42.6698 18.9611 44.2542 18.1864C45.6383 17.5032 46.8123 16.4592 47.6525 15.1645C48.1347 14.4215 49.1517 14.9572 48.6022 16.2487C47.1559 19.6488 44.3924 22.3455 41.0264 22.457C38.1601 22.5519 36.3109 20.4447 36.3182 17.8437C36.3279 12.7137 42.0406 9.33475 48.0407 8.82902C55.2679 8.23302 62.1132 10.1583 69.2874 11.0283C74.7859 11.693 80.0579 11.7068 85.5831 10.4383C86.2353 10.2965 86.6959 10.7124 86.6508 11.3724C86.5969 12.3263 85.8576 13.2443 84.0392 14.2373C81.9684 15.3736 79.805 15.7167 77.543 15.7365C72.0735 15.7812 66.978 13.65 61.707 12.505C61.7143 12.7348 61.7742 13.0107 61.5808 13.1563C58.6615 15.3091 56.0219 17.4974 54.2532 20.5681C54.1947 20.64 54.227 20.7063 54.3297 20.6989C55.8644 20.6183 57.2461 20.5796 58.6777 20.465C58.9273 20.4442 58.9365 20.3825 58.9158 20.1992C58.79 19.1403 59.0982 17.9322 60.0295 17.1008C60.982 16.2473 62.1758 16.1506 62.9662 16.7641C63.8657 17.4656 63.7865 18.7271 63.2955 19.6732C62.794 20.6326 61.9667 21.1439 61.1731 21.3921C61.1731 21.3921 61.0069 21.4299 61.0317 21.5819C61.0626 21.8223 62.1445 22.4229 62.2371 22.5828C62.3265 22.7334 62.2818 22.9692 62.115 23.1493C62.0004 23.2801 61.8212 23.404 61.5932 23.4008C61.4048 23.3966 61.2933 23.3321 61.0566 23.2023C60.5684 22.9406 59.9645 22.5086 59.5588 21.9978C59.422 21.8265 59.3515 21.8219 59.0061 21.8412C57.4566 21.9315 55.039 22.1636 53.3997 22.3695C53.0045 22.4188 52.9456 22.4929 52.8631 22.6284C50.2511 26.9367 47.4627 31.5809 44.4007 34.6903C41.1157 38.0305 38.3844 38.9057 35.4873 38.9296ZM60.3754 19.7929C60.4182 20.0131 60.503 20.0559 60.6034 20.0371C61.1004 19.9376 61.6439 19.5276 61.9672 19.0551C62.262 18.6244 62.3988 18.0031 62.1068 17.7535C61.8465 17.531 61.4232 17.5955 61.1087 17.8723C60.4855 18.4245 60.2962 19.2071 60.3754 19.7929Z"/></g><defs><radialGradient id="paint0_radial_1_12856" cx="0" cy="0" r="1" gradientTransform="translate(66.7073 82.6578) scale(287.278 145.908)" gradientUnits="userSpaceOnUse"><stop stop-color="#00082E"/><stop offset=".155" stop-color="#000A30"/><stop offset=".242" stop-color="#010F39"/><stop offset=".312" stop-color="#011946"/><stop offset=".373" stop-color="#02275A"/><stop offset=".414" stop-color="#03346C"/><stop offset=".439" stop-color="#0B4F87"/><stop offset=".48" stop-color="#1676AF"/><stop offset=".513" stop-color="#1C8EC7"/><stop offset=".533" stop-color="#1F97D0"/><stop offset="1" stop-color="#1F97D0"/></radialGradient><linearGradient id="paint1_linear_1_12856" x1="67.028" x2="67.028" y1="50.72" y2="-.066" gradientUnits="userSpaceOnUse"><stop stop-color="#00082E"/><stop offset=".321" stop-color="#010A30"/><stop offset=".501" stop-color="#030F39"/><stop offset=".647" stop-color="#071846"/><stop offset=".773" stop-color="#0D245A"/><stop offset=".809" stop-color="#0F2961"/><stop offset=".839" stop-color="#0B386E"/><stop offset=".896" stop-color="#054E83"/><stop offset=".951" stop-color="#015B90"/><stop offset="1" stop-color="#006094"/></linearGradient><linearGradient id="paint2_linear_1_12856" x1="12123.5" x2="12123.5" y1="50.732" y2="-.1" gradientUnits="userSpaceOnUse"><stop stop-color="#00082E"/><stop offset=".321" stop-color="#010A30"/><stop offset=".501" stop-color="#030F39"/><stop offset=".647" stop-color="#071846"/><stop offset=".773" stop-color="#0D245A"/><stop offset=".809" stop-color="#0F2961"/><stop offset=".839" stop-color="#0B386E"/><stop offset=".896" stop-color="#054E83"/><stop offset=".951" stop-color="#015B90"/><stop offset="1" stop-color="#006094"/></linearGradient><linearGradient id="paint3_linear_1_12856" x1="78.533" x2="78.533" y1="42.109" y2="6.426" gradientUnits="userSpaceOnUse"><stop stop-color="#00082E"/><stop offset=".321" stop-color="#010A30"/><stop offset=".501" stop-color="#030F39"/><stop offset=".647" stop-color="#071846"/><stop offset=".773" stop-color="#0D245A"/><stop offset=".809" stop-color="#0F2961"/><stop offset=".839" stop-color="#0B386E"/><stop offset=".896" stop-color="#054E83"/><stop offset=".951" stop-color="#015B90"/><stop offset="1" stop-color="#006094"/></linearGradient><linearGradient id="paint4_linear_1_12856" x1="93.595" x2="93.595" y1="42.054" y2="6.605" gradientUnits="userSpaceOnUse"><stop stop-color="#00082E"/><stop offset=".321" stop-color="#010A30"/><stop offset=".501" stop-color="#030F39"/><stop offset=".647" stop-color="#071846"/><stop offset=".773" stop-color="#0D245A"/><stop offset=".809" stop-color="#0F2961"/><stop offset=".839" stop-color="#0B386E"/><stop offset=".896" stop-color="#054E83"/><stop offset=".951" stop-color="#015B90"/><stop offset="1" stop-color="#006094"/></linearGradient><linearGradient id="paint5_linear_1_12856" x1="95.779" x2="95.779" y1="41.952" y2="6.678" gradientUnits="userSpaceOnUse"><stop stop-color="#00082E"/><stop offset=".321" stop-color="#010A30"/><stop offset=".501" stop-color="#030F39"/><stop offset=".647" stop-color="#071846"/><stop offset=".773" stop-color="#0D245A"/><stop offset=".809" stop-color="#0F2961"/><stop offset=".839" stop-color="#0B386E"/><stop offset=".896" stop-color="#054E83"/><stop offset=".951" stop-color="#015B90"/><stop offset="1" stop-color="#006094"/></linearGradient><linearGradient id="paint6_linear_1_12856" x1="76.104" x2="76.104" y1="42.187" y2="6.421" gradientUnits="userSpaceOnUse"><stop stop-color="#00082E"/><stop offset=".321" stop-color="#010A30"/><stop offset=".501" stop-color="#030F39"/><stop offset=".647" stop-color="#071846"/><stop offset=".773" stop-color="#0D245A"/><stop offset=".809" stop-color="#0F2961"/><stop offset=".839" stop-color="#0B386E"/><stop offset=".896" stop-color="#054E83"/><stop offset=".951" stop-color="#015B90"/><stop offset="1" stop-color="#006094"/></linearGradient><linearGradient id="paint7_linear_1_12856" x1="90.252" x2="90.252" y1="42.104" y2="6.477" gradientUnits="userSpaceOnUse"><stop stop-color="#00082E"/><stop offset=".321" stop-color="#010A30"/><stop offset=".501" stop-color="#030F39"/><stop offset=".647" stop-color="#071846"/><stop offset=".773" stop-color="#0D245A"/><stop offset=".809" stop-color="#0F2961"/><stop offset=".839" stop-color="#0B386E"/><stop offset=".896" stop-color="#054E83"/><stop offset=".951" stop-color="#015B90"/><stop offset="1" stop-color="#006094"/></linearGradient><linearGradient id="paint8_linear_1_12856" x1="59.44" x2="59.44" y1="42.078" y2="6.489" gradientUnits="userSpaceOnUse"><stop stop-color="#00082E"/><stop offset=".321" stop-color="#010A30"/><stop offset=".501" stop-color="#030F39"/><stop offset=".647" stop-color="#071846"/><stop offset=".773" stop-color="#0D245A"/><stop offset=".809" stop-color="#0F2961"/><stop offset=".839" stop-color="#0B386E"/><stop offset=".896" stop-color="#054E83"/><stop offset=".951" stop-color="#015B90"/><stop offset="1" stop-color="#006094"/></linearGradient><linearGradient id="paint9_linear_1_12856" x1="74.818" x2="74.818" y1="42.105" y2="6.451" gradientUnits="userSpaceOnUse"><stop stop-color="#00082E"/><stop offset=".321" stop-color="#010A30"/><stop offset=".501" stop-color="#030F39"/><stop offset=".647" stop-color="#071846"/><stop offset=".773" stop-color="#0D245A"/><stop offset=".809" stop-color="#0F2961"/><stop offset=".839" stop-color="#0B386E"/><stop offset=".896" stop-color="#054E83"/><stop offset=".951" stop-color="#015B90"/><stop offset="1" stop-color="#006094"/></linearGradient><linearGradient id="paint10_linear_1_12856" x1="93.673" x2="93.673" y1="42.189" y2="6.267" gradientUnits="userSpaceOnUse"><stop stop-color="#00082E"/><stop offset=".321" stop-color="#010A30"/><stop offset=".501" stop-color="#030F39"/><stop offset=".647" stop-color="#071846"/><stop offset=".773" stop-color="#0D245A"/><stop offset=".809" stop-color="#0F2961"/><stop offset=".839" stop-color="#0B386E"/><stop offset=".896" stop-color="#054E83"/><stop offset=".951" stop-color="#015B90"/><stop offset="1" stop-color="#006094"/></linearGradient><linearGradient id="paint11_linear_1_12856" x1="81.564" x2="81.564" y1="42.222" y2="6.389" gradientUnits="userSpaceOnUse"><stop stop-color="#00082E"/><stop offset=".321" stop-color="#010A30"/><stop offset=".501" stop-color="#030F39"/><stop offset=".647" stop-color="#071846"/><stop offset=".773" stop-color="#0D245A"/><stop offset=".809" stop-color="#0F2961"/><stop offset=".839" stop-color="#0B386E"/><stop offset=".896" stop-color="#054E83"/><stop offset=".951" stop-color="#015B90"/><stop offset="1" stop-color="#006094"/></linearGradient><linearGradient id="paint12_linear_1_12856" x1="100.987" x2="100.987" y1="42.116" y2="6.517" gradientUnits="userSpaceOnUse"><stop stop-color="#00082E"/><stop offset=".321" stop-color="#010A30"/><stop offset=".501" stop-color="#030F39"/><stop offset=".647" stop-color="#071846"/><stop offset=".773" stop-color="#0D245A"/><stop offset=".809" stop-color="#0F2961"/><stop offset=".839" stop-color="#0B386E"/><stop offset=".896" stop-color="#054E83"/><stop offset=".951" stop-color="#015B90"/><stop offset="1" stop-color="#006094"/></linearGradient><linearGradient id="paint13_linear_1_12856" x1="66.61" x2="66.61" y1="42.137" y2="6.444" gradientUnits="userSpaceOnUse"><stop stop-color="#00082E"/><stop offset=".321" stop-color="#010A30"/><stop offset=".501" stop-color="#030F39"/><stop offset=".647" stop-color="#071846"/><stop offset=".773" stop-color="#0D245A"/><stop offset=".809" stop-color="#0F2961"/><stop offset=".839" stop-color="#0B386E"/><stop offset=".896" stop-color="#054E83"/><stop offset=".951" stop-color="#015B90"/><stop offset="1" stop-color="#006094"/></linearGradient><linearGradient id="paint14_linear_1_12856" x1="61.052" x2="61.052" y1="42.11" y2="6.507" gradientUnits="userSpaceOnUse"><stop stop-color="#00082E"/><stop offset=".321" stop-color="#010A30"/><stop offset=".501" stop-color="#030F39"/><stop offset=".647" stop-color="#071846"/><stop offset=".773" stop-color="#0D245A"/><stop offset=".809" stop-color="#0F2961"/><stop offset=".839" stop-color="#0B386E"/><stop offset=".896" stop-color="#054E83"/><stop offset=".951" stop-color="#015B90"/><stop offset="1" stop-color="#006094"/></linearGradient><linearGradient id="paint15_linear_1_12856" x1="34.169" x2="34.169" y1="42.121" y2="6.493" gradientUnits="userSpaceOnUse"><stop stop-color="#00082E"/><stop offset=".321" stop-color="#010A30"/><stop offset=".501" stop-color="#030F39"/><stop offset=".647" stop-color="#071846"/><stop offset=".773" stop-color="#0D245A"/><stop offset=".809" stop-color="#0F2961"/><stop offset=".839" stop-color="#0B386E"/><stop offset=".896" stop-color="#054E83"/><stop offset=".951" stop-color="#015B90"/><stop offset="1" stop-color="#006094"/></linearGradient><linearGradient id="paint16_linear_1_12856" x1="50.118" x2="50.118" y1="42.323" y2="6.358" gradientUnits="userSpaceOnUse"><stop stop-color="#00082E"/><stop offset=".321" stop-color="#010A30"/><stop offset=".501" stop-color="#030F39"/><stop offset=".647" stop-color="#071846"/><stop offset=".773" stop-color="#0D245A"/><stop offset=".809" stop-color="#0F2961"/><stop offset=".839" stop-color="#0B386E"/><stop offset=".896" stop-color="#054E83"/><stop offset=".951" stop-color="#015B90"/><stop offset="1" stop-color="#006094"/></linearGradient><linearGradient id="paint17_linear_1_12856" x1="45.47" x2="45.47" y1="42.114" y2="6.477" gradientUnits="userSpaceOnUse"><stop stop-color="#00082E"/><stop offset=".321" stop-color="#010A30"/><stop offset=".501" stop-color="#030F39"/><stop offset=".647" stop-color="#071846"/><stop offset=".773" stop-color="#0D245A"/><stop offset=".809" stop-color="#0F2961"/><stop offset=".839" stop-color="#0B386E"/><stop offset=".896" stop-color="#054E83"/><stop offset=".951" stop-color="#015B90"/><stop offset="1" stop-color="#006094"/></linearGradient><linearGradient id="paint18_linear_1_12856" x1="46.322" x2="46.322" y1="42.198" y2="6.437" gradientUnits="userSpaceOnUse"><stop stop-color="#00082E"/><stop offset=".321" stop-color="#010A30"/><stop offset=".501" stop-color="#030F39"/><stop offset=".647" stop-color="#071846"/><stop offset=".773" stop-color="#0D245A"/><stop offset=".809" stop-color="#0F2961"/><stop offset=".839" stop-color="#0B386E"/><stop offset=".896" stop-color="#054E83"/><stop offset=".951" stop-color="#015B90"/><stop offset="1" stop-color="#006094"/></linearGradient><linearGradient id="paint19_linear_1_12856" x1="70.563" x2="70.563" y1="42.137" y2="6.475" gradientUnits="userSpaceOnUse"><stop stop-color="#00082E"/><stop offset=".321" stop-color="#010A30"/><stop offset=".501" stop-color="#030F39"/><stop offset=".647" stop-color="#071846"/><stop offset=".773" stop-color="#0D245A"/><stop offset=".809" stop-color="#0F2961"/><stop offset=".839" stop-color="#0B386E"/><stop offset=".896" stop-color="#054E83"/><stop offset=".951" stop-color="#015B90"/><stop offset="1" stop-color="#006094"/></linearGradient><linearGradient id="paint20_linear_1_12856" x1="61.3" x2="61.3" y1="42.146" y2="6.469" gradientUnits="userSpaceOnUse"><stop stop-color="#00082E"/><stop offset=".321" stop-color="#010A30"/><stop offset=".501" stop-color="#030F39"/><stop offset=".647" stop-color="#071846"/><stop offset=".773" stop-color="#0D245A"/><stop offset=".809" stop-color="#0F2961"/><stop offset=".839" stop-color="#0B386E"/><stop offset=".896" stop-color="#054E83"/><stop offset=".951" stop-color="#015B90"/><stop offset="1" stop-color="#006094"/></linearGradient><linearGradient id="paint21_linear_1_12856" x1="62.473" x2="62.473" y1="42.117" y2="6.494" gradientUnits="userSpaceOnUse"><stop stop-color="#00082E"/><stop offset=".321" stop-color="#010A30"/><stop offset=".501" stop-color="#030F39"/><stop offset=".647" stop-color="#071846"/><stop offset=".773" stop-color="#0D245A"/><stop offset=".809" stop-color="#0F2961"/><stop offset=".839" stop-color="#0B386E"/><stop offset=".896" stop-color="#054E83"/><stop offset=".951" stop-color="#015B90"/><stop offset="1" stop-color="#006094"/></linearGradient><linearGradient id="paint22_linear_1_12856" x1="43.025" x2="43.025" y1="42.188" y2="6.481" gradientUnits="userSpaceOnUse"><stop stop-color="#00082E"/><stop offset=".321" stop-color="#010A30"/><stop offset=".501" stop-color="#030F39"/><stop offset=".647" stop-color="#071846"/><stop offset=".773" stop-color="#0D245A"/><stop offset=".809" stop-color="#0F2961"/><stop offset=".839" stop-color="#0B386E"/><stop offset=".896" stop-color="#054E83"/><stop offset=".951" stop-color="#015B90"/><stop offset="1" stop-color="#006094"/></linearGradient><linearGradient id="paint23_linear_1_12856" x1="52.542" x2="37.133" y1="62.136" y2="4.63" gradientUnits="userSpaceOnUse"><stop stop-color="#A5A5A6"/><stop offset=".35" stop-color="#D7D7D7"/><stop offset=".65" stop-color="#D7D7D7"/><stop offset="1" stop-color="#A5A5A6"/></linearGradient><linearGradient id="paint24_linear_1_12856" x1="92.966" x2="77.591" y1="30.34" y2="-27.039" gradientUnits="userSpaceOnUse"><stop stop-color="#A5A5A6"/><stop offset=".35" stop-color="#D7D7D7"/><stop offset=".65" stop-color="#D7D7D7"/><stop offset="1" stop-color="#A5A5A6"/></linearGradient></defs></svg>