<svg xmlns="http://www.w3.org/2000/svg" width="154" height="25" fill="none" viewBox="0 0 154 25"><g style="mix-blend-mode:luminosity"><path fill="#EA4335" d="M18.5539 6.45494H19.4206L21.8925 3.98303L22.0136 2.93462C17.4146 -1.12621 10.3926 -0.688208 6.33411 3.91314C5.20648 5.18987 4.38873 6.71122 3.94141 8.35606C4.21632 8.24423 4.52152 8.22559 4.80809 8.3048L9.75191 7.48937C9.75191 7.48937 10.0035 7.07234 10.134 7.09797C12.3333 4.68197 16.033 4.4024 18.5725 6.45728L18.5539 6.45494Z"/><path fill="#4285F4" d="M25.4123 8.35609C24.8438 6.26393 23.6766 4.38378 22.0551 2.94397L18.586 6.41304C20.0514 7.61055 20.8855 9.41381 20.8505 11.3033V11.9183C22.556 11.9183 23.9375 13.2999 23.9375 15.0053C23.9375 16.7107 22.556 18.0923 20.8505 18.0923H14.6766L14.0615 18.7167V22.4187L14.6766 23.0338H20.8505C25.2865 23.0687 28.9093 19.5018 28.9443 15.0659C28.9652 12.382 27.6396 9.86113 25.4123 8.35609Z"/><path fill="#34A853" d="M8.49381 23.0035H14.6678V18.0597H8.49381C8.05348 18.0597 7.62014 17.9641 7.21941 17.7824L6.35273 18.0503L3.86218 20.5223L3.64551 21.3889C5.04106 22.4443 6.74414 23.0105 8.49381 23.0035Z"/><path fill="#FBBC05" d="M8.49376 6.96752C4.05783 6.99315 0.483924 10.6113 0.511882 15.0449C0.52586 17.5215 1.68377 19.8536 3.64546 21.3633L7.22635 17.7824C5.67238 17.0812 4.98276 15.2523 5.68403 13.6983C6.3853 12.1443 8.21419 11.4547 9.76816 12.156C10.4531 12.4658 11.0006 13.0133 11.3105 13.6983L14.8914 10.1174C13.37 8.1231 11.0006 6.9582 8.49376 6.96752Z"/><path fill="#5F6368" d="M45.3858 19.5507C43.2377 19.5787 41.1712 18.7307 39.6615 17.2C38.1028 15.7345 37.2315 13.6843 37.2594 11.5456C37.2338 9.40681 38.1052 7.35659 39.6615 5.89115C41.1642 4.3465 43.2307 3.48214 45.3858 3.49845C47.4383 3.4705 49.4163 4.26728 50.8748 5.70943L49.3301 7.27971C48.2724 6.25693 46.8535 5.69778 45.3834 5.71875C43.8411 5.70011 42.3617 6.32915 41.3063 7.45212C40.209 8.54013 39.6055 10.0265 39.6335 11.5712C39.6195 13.0972 40.2253 14.5626 41.3063 15.639C43.5406 17.864 47.1378 17.9059 49.4233 15.7345C50.1036 14.989 50.5206 14.0431 50.6115 13.0366H45.4091V10.8163H52.7712C52.8434 11.2637 52.8737 11.7156 52.8574 12.17C52.9506 14.0641 52.2633 15.9116 50.9586 17.2862C49.5095 18.8006 47.4803 19.623 45.3858 19.5507ZM62.5051 18.076C60.4526 20.0447 57.2118 20.0447 55.1593 18.076C54.1644 17.1114 53.6216 15.7741 53.6589 14.3902C53.6216 13.0063 54.1668 11.669 55.1593 10.7045C57.2141 8.74049 60.4502 8.74049 62.5051 10.7045C63.4976 11.669 64.0428 13.0063 64.0055 14.3902C64.0404 15.7765 63.4929 17.1138 62.4958 18.076H62.5051ZM56.7808 16.6292C57.8409 17.7615 59.6185 17.8197 60.7531 16.7596C60.7974 16.7177 60.8416 16.6734 60.8836 16.6292C61.4614 16.0304 61.7759 15.2243 61.7503 14.3926C61.7759 13.5585 61.4637 12.7477 60.8836 12.1467C59.7932 11.0097 57.9876 10.9701 56.8484 12.0605C56.8204 12.0884 56.7901 12.1164 56.7622 12.1467C56.182 12.7477 55.8699 13.5585 55.8955 14.3926C55.8722 15.2266 56.189 16.0327 56.7715 16.6292H56.7808ZM73.7953 18.076C71.7427 20.0447 68.502 20.0447 66.4495 18.076C65.4546 17.1114 64.9118 15.7741 64.9491 14.3902C64.9118 13.0063 65.457 11.669 66.4495 10.7045C68.502 8.73583 71.7427 8.73583 73.7953 10.7045C74.7878 11.669 75.333 13.0063 75.2957 14.3902C75.3353 15.7765 74.7901 17.1138 73.7953 18.076ZM68.071 16.6292C69.131 17.7615 70.9087 17.8197 72.0433 16.7596C72.0876 16.7177 72.1318 16.6734 72.1738 16.6292C72.7515 16.0304 73.0661 15.2243 73.0404 14.3926C73.0661 13.5585 72.7539 12.7477 72.1738 12.1467C71.0834 11.0097 69.2778 10.9701 68.1386 12.0605C68.1106 12.0884 68.0803 12.1164 68.0524 12.1467C67.4722 12.7477 67.16 13.5585 67.1857 14.3926C67.1624 15.2266 67.4792 16.0327 68.0617 16.6292H68.071ZM81.218 24.1824C80.1789 24.215 79.1585 23.8912 78.3291 23.2621C77.5929 22.7076 77.0127 21.9737 76.647 21.128L78.625 20.3033C78.8393 20.8088 79.1771 21.2515 79.6058 21.5963C80.0648 21.9667 80.6402 22.1601 81.2273 22.1438C81.9822 22.1904 82.7207 21.9038 83.2473 21.3633C83.7691 20.732 84.0278 19.9258 83.9672 19.1081V18.3625H83.8903C83.2193 19.1593 82.2152 19.5927 81.1761 19.5344C79.8597 19.5391 78.6017 18.9916 77.707 18.0247C76.7378 17.0672 76.202 15.7532 76.2229 14.3902C76.1996 13.0203 76.7332 11.697 77.707 10.7301C78.5993 9.76094 79.8574 9.20878 81.1761 9.21344C81.7282 9.21344 82.2734 9.33459 82.772 9.5699C83.203 9.75861 83.5898 10.0405 83.8996 10.3946H83.9788V9.5699H86.1292V18.8052C86.2434 20.2823 85.7448 21.7407 84.75 22.8381C83.8018 23.7444 82.5297 24.229 81.218 24.1824ZM81.3741 17.5215C82.1243 17.5378 82.8419 17.2209 83.3335 16.6548C83.8693 16.0421 84.1512 15.2476 84.1233 14.4345C84.1559 13.6074 83.874 12.799 83.3335 12.17C82.8419 11.6038 82.1243 11.2846 81.3741 11.3033C80.6053 11.287 79.8644 11.6038 79.3449 12.17C78.7717 12.7757 78.4595 13.5818 78.4782 14.4159C78.4595 15.243 78.7717 16.0397 79.3449 16.6362C79.8644 17.2093 80.603 17.5331 81.3741 17.5215ZM89.9524 4.0809V19.2409H87.6879V4.0809H89.9524ZM96.1613 19.5507C94.7914 19.5857 93.4681 19.0475 92.5105 18.0667C91.539 17.0928 91.0102 15.7648 91.0451 14.3902C90.9938 13.0133 91.5041 11.6737 92.4593 10.6789C93.3609 9.72833 94.619 9.20412 95.9284 9.22975C96.5225 9.22276 97.1142 9.33925 97.6617 9.56757C98.1556 9.76793 98.6076 10.0615 98.9897 10.4343C99.3182 10.7511 99.6071 11.1029 99.8564 11.4827C100.057 11.8042 100.229 12.1443 100.369 12.4985L100.604 13.0879L93.6661 15.9419C94.0948 16.9297 95.0896 17.5494 96.1637 17.5028C97.2028 17.5052 98.1673 16.9623 98.7055 16.0724L100.439 17.2442C99.9962 17.878 99.43 18.4138 98.773 18.8215C97.9926 19.3154 97.0839 19.5694 96.1613 19.5507ZM93.2654 14.2341L97.8784 12.3167C97.7363 11.9789 97.4823 11.6993 97.1585 11.5269C96.7974 11.3219 96.3873 11.2171 95.9703 11.2241C95.2644 11.2427 94.5934 11.5386 94.1065 12.0488C93.5147 12.6173 93.2048 13.4187 93.2654 14.2341ZM112.456 19.5507C108.509 19.6183 105.257 16.4754 105.187 12.5287C105.185 12.4332 105.185 12.3354 105.187 12.2398C105.096 8.29317 108.22 5.02214 112.165 4.92895C112.26 4.92662 112.358 4.92662 112.454 4.92895C114.427 4.86837 116.321 5.70943 117.595 7.21914L116.347 8.43296C115.41 7.25408 113.966 6.59475 112.461 6.65533C111.018 6.62271 109.623 7.17953 108.602 8.19998C107.538 9.26936 106.969 10.7348 107.032 12.2422C106.969 13.7496 107.538 15.215 108.602 16.2844C109.625 17.3025 111.018 17.8616 112.461 17.829C114.14 17.8477 115.736 17.0998 116.796 15.7998L118.045 17.0485C117.39 17.8314 116.57 18.4557 115.643 18.8774C114.648 19.3364 113.558 19.5671 112.456 19.5507ZM121.407 19.2385H119.611V5.23182H121.407V19.2385ZM124.338 10.8093C126.295 8.86397 129.456 8.86397 131.413 10.8093C132.343 11.7902 132.842 13.1019 132.802 14.4508C132.844 15.8021 132.343 17.1114 131.413 18.0923C129.456 20.0377 126.295 20.0377 124.338 18.0923C123.408 17.1114 122.91 15.7998 122.949 14.4508C122.91 13.1019 123.408 11.7902 124.338 10.8093ZM125.673 16.967C126.821 18.1808 128.737 18.2344 129.953 17.0858C129.992 17.0485 130.032 17.0089 130.072 16.967C130.705 16.2867 131.041 15.3804 130.999 14.4532C131.038 13.5236 130.705 12.6173 130.072 11.9393C128.923 10.7255 127.008 10.6719 125.794 11.8205C125.754 11.8578 125.715 11.8974 125.675 11.9393C125.041 12.6196 124.706 13.5259 124.748 14.4532C124.713 15.3804 125.051 16.282 125.684 16.96L125.673 16.967ZM142.748 19.2385H141.015V17.9106H140.963C140.653 18.4138 140.218 18.8285 139.698 19.1081C139.158 19.4203 138.545 19.5857 137.921 19.5857C136.893 19.6556 135.891 19.2525 135.197 18.493C134.54 17.6613 134.209 16.6199 134.27 15.5621V9.66542H136.066V15.2336C136.066 17.0206 136.856 17.9129 138.433 17.9129C139.144 17.9362 139.824 17.6124 140.255 17.0462C140.721 16.4568 140.968 15.7252 140.959 14.9727V9.66542H142.755V19.2385H142.748ZM148.845 19.5507C147.613 19.5554 146.441 19.0195 145.637 18.0853C144.738 17.0928 144.255 15.7905 144.293 14.4508C144.255 13.1112 144.738 11.8112 145.637 10.8163C146.441 9.88209 147.613 9.34624 148.845 9.3509C149.528 9.33925 150.201 9.50233 150.804 9.81919C151.336 10.0871 151.785 10.4902 152.104 10.9911H152.184L152.104 9.66309V5.23182H153.901V19.2385H152.167V17.9106H152.088C151.767 18.4091 151.317 18.8145 150.788 19.0825C150.189 19.397 149.523 19.5601 148.845 19.5507ZM149.141 17.9129C149.961 17.9245 150.748 17.5844 151.301 16.9763C151.911 16.282 152.221 15.3757 152.167 14.4532C152.221 13.5306 151.911 12.6243 151.301 11.93C150.21 10.7325 148.358 10.6463 147.161 11.7343C147.093 11.7972 147.028 11.8624 146.965 11.93C146.352 12.6196 146.04 13.5236 146.098 14.4438C146.042 15.3641 146.354 16.2681 146.965 16.9577C147.517 17.5774 148.311 17.9245 149.141 17.9129Z"/></g></svg>