<svg width="52" height="52" viewBox="0 0 52 52" fill="none" xmlns="http://www.w3.org/2000/svg">
<g style="mix-blend-mode:luminosity">
<path d="M26.2507 51.7376C25.9966 51.7376 25.7435 51.7329 25.4909 51.7256L30.7162 37.3651H37.9072C39.1694 37.3651 40.5549 36.3948 40.9866 35.2093L46.6556 19.6381C47.5831 17.0887 46.1229 15.003 43.4102 15.003H33.434L25.0634 38.0044H25.0603L20.3149 51.0433C9.05665 48.3668 0.682617 38.2465 0.682617 26.1694C0.682617 14.4405 8.58045 4.55727 19.3477 1.54509L14.4513 15.003H14.4499L6.30985 37.3651L11.7286 37.3656L18.6511 18.3633H22.7235L15.8011 37.3656L21.2178 37.3665L27.6688 19.6381C28.5969 17.0887 27.1365 15.003 24.4263 15.003H19.8713L25.1016 0.628066C25.4829 0.611139 25.8656 0.601196 26.2507 0.601196C40.3717 0.601196 51.8189 12.0484 51.8189 26.1694C51.8189 40.2901 40.3717 51.7376 26.2507 51.7376ZM41.7209 18.3497H37.6495L31.9479 33.9934H36.0194L41.7209 18.3497Z" fill="#4987CE"/>
</g>
</svg>
