<svg width="80" height="62" viewBox="0 0 80 62" fill="none" xmlns="http://www.w3.org/2000/svg">
<g style="mix-blend-mode:luminosity">
<path d="M14.6192 61.7199V57.6474C14.6192 56.0896 13.6702 55.0695 12.0412 55.0695C11.2268 55.0695 10.3411 55.3383 9.73219 56.224C9.25773 55.4807 8.57767 55.0695 7.55757 55.0695C6.87751 55.0695 6.19744 55.2751 5.65972 56.0184V55.2039H4.23633V61.7199H5.65972V58.1218C5.65972 56.9673 6.26861 56.4217 7.21754 56.4217C8.16647 56.4217 8.64093 57.0306 8.64093 58.1218V61.7199H10.0643V58.1218C10.0643 56.9673 10.7444 56.4217 11.6221 56.4217C12.5711 56.4217 13.0455 57.0306 13.0455 58.1218V61.7199H14.6192ZM35.7328 55.2039H33.4237V53.2349H32.0003V55.2039H30.7114V56.4929H32.0003V59.482C32.0003 60.9765 32.6092 61.8543 34.2382 61.8543C34.8471 61.8543 35.5272 61.6487 36.0016 61.3798L35.5904 60.1541C35.1792 60.423 34.7048 60.4942 34.3647 60.4942C33.6847 60.4942 33.4158 60.083 33.4158 59.4108V56.4929H35.7249V55.2039H35.7328ZM47.8158 55.0616C47.0013 55.0616 46.4557 55.4728 46.1156 56.0105V55.196H44.6922V61.7119H46.1156V58.0428C46.1156 56.9594 46.5901 56.3426 47.4757 56.3426C47.7446 56.3426 48.0846 56.4138 48.3614 56.477L48.7726 55.1169C48.4879 55.0616 48.0846 55.0616 47.8158 55.0616ZM29.5569 55.7416C28.8768 55.2672 27.9279 55.0616 26.9078 55.0616C25.2788 55.0616 24.1954 55.8761 24.1954 57.165C24.1954 58.2484 25.0099 58.8652 26.4333 59.0629L27.1134 59.134C27.8567 59.2685 28.2679 59.4741 28.2679 59.8141C28.2679 60.2886 27.7223 60.6286 26.7733 60.6286C25.8244 60.6286 25.0732 60.2886 24.5987 59.9485L23.9186 61.0319C24.662 61.5775 25.6821 61.8464 26.7022 61.8464C28.6 61.8464 29.6913 60.9607 29.6913 59.7429C29.6913 58.5884 28.8056 57.9795 27.4534 57.7739L26.7733 57.7027C26.1644 57.6316 25.69 57.4971 25.69 57.0938C25.69 56.6194 26.1644 56.3505 26.9157 56.3505C27.7302 56.3505 28.5447 56.6905 28.9559 56.8961L29.5569 55.7416ZM67.4269 55.0616C66.6124 55.0616 66.0668 55.4728 65.7268 56.0105V55.196H64.3034V61.7119H65.7268V58.0428C65.7268 56.9594 66.2012 56.3426 67.0869 56.3426C67.3558 56.3426 67.6958 56.4138 67.9726 56.477L68.3838 55.1327C68.107 55.0616 67.7037 55.0616 67.4269 55.0616ZM49.2392 58.4619C49.2392 60.4309 50.5993 61.8543 52.7028 61.8543C53.6517 61.8543 54.3317 61.6487 55.0118 61.111L54.3317 59.9564C53.7861 60.3676 53.2484 60.5653 52.6316 60.5653C51.4771 60.5653 50.6626 59.7508 50.6626 58.4619C50.6626 57.2362 51.4771 56.4217 52.6316 56.3584C53.2405 56.3584 53.7861 56.564 54.3317 56.9673L55.0118 55.8128C54.3317 55.2672 53.6517 55.0695 52.7028 55.0695C50.5993 55.0616 49.2392 56.4929 49.2392 58.4619ZM62.4055 58.4619V55.2039H60.9821V56.0184C60.5077 55.4095 59.8276 55.0695 58.9419 55.0695C57.1074 55.0695 55.684 56.4929 55.684 58.4619C55.684 60.4309 57.1074 61.8543 58.9419 61.8543C59.8909 61.8543 60.5709 61.5143 60.9821 60.9054V61.7199H62.4055V58.4619ZM57.1785 58.4619C57.1785 57.3073 57.9219 56.3584 59.1475 56.3584C60.3021 56.3584 61.1166 57.2441 61.1166 58.4619C61.1166 59.6164 60.3021 60.5653 59.1475 60.5653C57.9298 60.4942 57.1785 59.6085 57.1785 58.4619ZM40.1453 55.0616C38.2474 55.0616 36.8873 56.4217 36.8873 58.454C36.8873 60.4942 38.2474 61.8464 40.2165 61.8464C41.1654 61.8464 42.1143 61.5775 42.8655 60.9607L42.1855 59.9406C41.6399 60.3518 40.9598 60.6207 40.2876 60.6207C39.402 60.6207 38.5242 60.2095 38.3186 59.0629H43.1344C43.1344 58.8573 43.1344 58.7228 43.1344 58.5172C43.1977 56.4217 41.972 55.0616 40.1453 55.0616ZM40.1453 56.2873C41.031 56.2873 41.6399 56.8329 41.7743 57.8451H38.3819C38.5163 56.9673 39.1252 56.2873 40.1453 56.2873ZM75.5086 58.4619V52.626H74.0852V56.0184C73.6108 55.4095 72.9307 55.0695 72.045 55.0695C70.2104 55.0695 68.7871 56.4929 68.7871 58.4619C68.7871 60.4309 70.2104 61.8543 72.045 61.8543C72.994 61.8543 73.674 61.5143 74.0852 60.9054V61.7199H75.5086V58.4619ZM70.2816 58.4619C70.2816 57.3073 71.0249 56.3584 72.2506 56.3584C73.4052 56.3584 74.2197 57.2441 74.2197 58.4619C74.2197 59.6164 73.4052 60.5653 72.2506 60.5653C71.0249 60.4942 70.2816 59.6085 70.2816 58.4619ZM22.6297 58.4619V55.2039H21.2063V56.0184C20.7318 55.4095 20.0518 55.0695 19.1661 55.0695C17.3315 55.0695 15.9081 56.4929 15.9081 58.4619C15.9081 60.4309 17.3315 61.8543 19.1661 61.8543C20.115 61.8543 20.7951 61.5143 21.2063 60.9054V61.7199H22.6297V58.4619ZM17.3394 58.4619C17.3394 57.3073 18.0827 56.3584 19.3084 56.3584C20.463 56.3584 21.2775 57.2441 21.2775 58.4619C21.2775 59.6164 20.463 60.5653 19.3084 60.5653C18.0827 60.4942 17.3394 59.6085 17.3394 58.4619Z" fill="#1E1B1B"/>
<path d="M50.4645 5.71619H29.082V44.1319H50.4645V5.71619Z" fill="#FF5A00"/>
<path d="M30.5054 24.9229C30.5054 17.118 34.1745 10.1908 39.8048 5.71504C35.6612 2.45706 30.4342 0.488037 24.7327 0.488037C11.2263 0.488037 0.297852 11.4165 0.297852 24.9229C0.297852 38.4293 11.2263 49.3577 24.7327 49.3577C30.4342 49.3577 35.6612 47.3887 39.8048 44.1307C34.1666 39.7182 30.5054 32.7278 30.5054 24.9229Z" fill="#EB001B"/>
<path d="M79.3136 24.9229C79.3136 38.4293 68.3851 49.3578 54.8788 49.3578C49.1773 49.3578 43.9503 47.3888 39.8066 44.1308C45.5081 39.6471 49.1061 32.7279 49.1061 24.9229C49.1061 17.118 45.4369 10.1909 39.8066 5.7151C43.9424 2.45712 49.1694 0.488098 54.8708 0.488098C68.3851 0.488098 79.3136 11.4877 79.3136 24.9229Z" fill="#F79E1B"/>
</g>
</svg>
