<svg width="155" height="46" viewBox="0 0 155 46" fill="none" xmlns="http://www.w3.org/2000/svg">
<g style="mix-blend-mode:luminosity">
<path d="M73.7367 11.8611H80.6736V34.2492H75.5332V19.1939L68.9572 34.2492L62.0362 19.175V34.2492H57.2397V11.8611H64.0959L69.0389 23.449L73.7367 11.8611Z" fill="#231F20"/>
<path d="M83.228 11.8611V34.2492H96.1458V30.4537H88.2358V24.758H95.8188V20.9266H88.2358V15.7902H96.1458V11.8611H83.228Z" fill="#231F20"/>
<path d="M115.416 23.0592C115.416 31.3929 124.113 38.0617 133.277 33.6012V28.8048C126.226 33.7448 120.087 28.7935 120.188 23.2506C120.257 19.5668 122.732 16.0634 127.521 15.7903C129.876 15.6566 131.471 16.2419 133.277 17.9717V12.9838C126.655 9.05972 115.416 13.3786 115.416 23.0592Z" fill="#231F20"/>
<path d="M135.388 34.2487H140.15V12.076H135.388V34.2487Z" fill="#231F20"/>
<path d="M146.125 22.2443L153.32 12.126H147.759L140.63 22.2253L148.906 34.2499H154.367L146.125 22.2443Z" fill="#231F20"/>
<path d="M98.3726 11.8611V34.2492H103.398V22.2213L111.705 34.2492H117.061L110.485 24.8486C113.533 23.696 114.522 21.1406 114.522 18.5863C114.522 16.0341 112.379 11.8611 107.189 11.8611H98.3726ZM103.398 15.5867H105.591C109.3 15.5867 109.498 18.0111 109.498 18.9164C109.498 20.6461 108.03 22.1191 106.136 22.1191H103.398V15.5867Z" fill="#231F20"/>
<path d="M12.1525 11.8618C12.1525 5.67857 17.1653 0.666809 23.3475 0.666809C29.5318 0.666809 34.5426 5.67857 34.5426 11.8618H12.1525ZM12.1525 34.2508C12.1525 28.0686 17.1653 23.0558 23.3475 23.0558C17.1653 23.0558 12.1525 18.045 12.1525 11.8618C5.97029 11.8618 0.958496 16.8736 0.958496 23.0558C0.958496 29.2401 5.97029 34.2508 12.1525 34.2508ZM12.1525 34.2508C12.1525 40.4351 17.1653 45.4459 23.3475 45.4459C29.5318 45.4459 34.5426 40.4351 34.5426 34.2508H12.1525ZM23.3475 23.0558C29.5318 23.0558 34.5426 28.0686 34.5426 34.2508C40.7258 34.2508 45.7386 29.2401 45.7386 23.0558C45.7386 16.8736 40.7258 11.8618 34.5426 11.8618C34.5426 18.045 29.5318 23.0558 23.3475 23.0558Z" fill="#007A73"/>
</g>
</svg>
