<svg xmlns="http://www.w3.org/2000/svg" width="155" height="34" fill="none" viewBox="0 0 155 34"><g style="mix-blend-mode:luminosity"><path fill="#706D6E" d="M154.313 15.6113V12.9134H150.962V8.71981L150.85 8.75476L147.703 9.71696L147.64 9.7356V12.9134H142.673V11.1428C142.673 10.318 142.857 9.68667 143.22 9.26731C143.581 8.85261 144.096 8.64059 144.756 8.64059C145.229 8.64059 145.718 8.75242 146.212 8.97142L146.335 9.02734V6.18499L146.277 6.16402C145.818 5.99861 145.191 5.91473 144.416 5.91473C143.439 5.91473 142.552 6.12674 141.776 6.54844C141 6.97013 140.392 7.57355 139.966 8.33772C139.539 9.10189 139.325 9.98722 139.325 10.9634V12.9088H136.993V15.6067H139.325V26.9714H142.673V15.6067H147.64V22.829C147.64 25.8042 149.043 27.3116 151.81 27.3116C152.265 27.3116 152.745 27.258 153.231 27.1532C153.728 27.046 154.068 26.9388 154.266 26.8246L154.31 26.799V24.0755L154.175 24.1664C153.993 24.2875 153.767 24.3854 153.502 24.4599C153.236 24.5345 153.012 24.5717 152.84 24.5717C152.192 24.5717 151.712 24.397 151.414 24.0522C151.114 23.705 150.96 23.097 150.96 22.2443V15.6044H154.313V15.6113ZM129.517 24.5764C128.3 24.5764 127.343 24.1733 126.667 23.3789C125.987 22.5821 125.644 21.4428 125.644 19.9983C125.644 18.5073 125.989 17.3401 126.669 16.5293C127.345 15.7232 128.293 15.3131 129.491 15.3131C130.651 15.3131 131.576 15.7045 132.238 16.4757C132.904 17.2515 133.242 18.4094 133.242 19.9168C133.242 21.4428 132.925 22.617 132.298 23.4022C131.674 24.1803 130.74 24.5764 129.517 24.5764ZM129.666 12.5733C127.347 12.5733 125.505 13.2536 124.193 14.5932C122.881 15.9329 122.215 17.7874 122.215 20.1055C122.215 22.3072 122.865 24.0778 124.146 25.3685C125.428 26.6592 127.17 27.3139 129.328 27.3139C131.576 27.3139 133.382 26.6243 134.693 25.266C136.005 23.9077 136.671 22.0719 136.671 19.8073C136.671 17.5707 136.047 15.7861 134.817 14.5047C133.582 13.2233 131.851 12.5733 129.666 12.5733ZM116.814 12.5733C115.237 12.5733 113.933 12.9763 112.935 13.7731C111.934 14.5723 111.423 15.623 111.423 16.8927C111.423 17.5521 111.533 18.1392 111.749 18.6377C111.966 19.1363 112.304 19.5767 112.751 19.9448C113.194 20.3105 113.879 20.6926 114.788 21.084C115.549 21.3986 116.118 21.6642 116.481 21.8715C116.835 22.0765 117.085 22.2815 117.227 22.4842C117.364 22.6799 117.434 22.9502 117.434 23.281C117.434 24.2269 116.726 24.6859 115.27 24.6859C114.729 24.6859 114.114 24.5741 113.439 24.3504C112.768 24.1314 112.136 23.8099 111.563 23.3998L111.423 23.2997V26.5241L111.475 26.5474C111.948 26.7664 112.546 26.9505 113.25 27.0949C113.953 27.2394 114.592 27.3139 115.146 27.3139C116.859 27.3139 118.236 26.9085 119.242 26.1094C120.253 25.3033 120.768 24.2293 120.768 22.9153C120.768 21.967 120.491 21.1539 119.948 20.4993C119.408 19.8492 118.469 19.2528 117.162 18.7239C116.12 18.3046 115.452 17.9574 115.177 17.6919C114.911 17.4332 114.776 17.0698 114.776 16.6085C114.776 16.1985 114.941 15.8723 115.284 15.6067C115.629 15.3411 116.109 15.2036 116.71 15.2036C117.266 15.2036 117.837 15.2922 118.406 15.4646C118.972 15.637 119.47 15.8676 119.887 16.1519L120.025 16.245V13.186L119.971 13.1627C119.587 12.9973 119.081 12.8575 118.466 12.7434C117.854 12.6315 117.299 12.5733 116.814 12.5733ZM102.696 24.5764C101.48 24.5764 100.522 24.1733 99.8466 23.3789C99.1663 22.5821 98.8238 21.4428 98.8238 19.9983C98.8238 18.5073 99.1686 17.3401 99.8489 16.5293C100.525 15.7232 101.473 15.3131 102.67 15.3131C103.831 15.3131 104.755 15.7045 105.417 16.4757C106.083 17.2515 106.421 18.4094 106.421 19.9168C106.421 21.4428 106.104 22.617 105.478 23.4022C104.853 24.1803 103.919 24.5764 102.696 24.5764ZM102.845 12.5733C100.525 12.5733 98.684 13.2536 97.3723 14.5932C96.0606 15.9329 95.3943 17.7874 95.3943 20.1055C95.3943 22.3072 96.0443 24.0778 97.3257 25.3685C98.6071 26.6592 100.35 27.3139 102.507 27.3139C104.755 27.3139 106.561 26.6243 107.873 25.266C109.184 23.9077 109.851 22.0719 109.851 19.8073C109.851 17.5707 109.226 15.7861 107.996 14.5047C106.761 13.2233 105.028 12.5733 102.845 12.5733ZM90.3107 15.3481V12.9134H87.0024V26.9761H90.3107V19.784C90.3107 18.5609 90.588 17.5567 91.1355 16.7972C91.676 16.047 92.3959 15.6673 93.2742 15.6673C93.5724 15.6673 93.9056 15.7162 94.269 15.814C94.6278 15.9096 94.8864 16.0144 95.0402 16.1262L95.18 16.2264V12.8925L95.1264 12.8692C94.8189 12.7387 94.3832 12.6711 93.831 12.6711C92.9993 12.6711 92.2561 12.9391 91.6177 13.4633C91.0586 13.9246 90.6532 14.5583 90.3457 15.3504H90.3107V15.3481ZM81.0777 12.5733C79.561 12.5733 78.2074 12.8995 77.0565 13.5402C75.9033 14.1832 75.0109 15.1011 74.4029 16.2683C73.7995 17.4332 73.4919 18.7938 73.4919 20.3105C73.4919 21.6385 73.7901 22.8593 74.3772 23.9334C74.9667 25.0097 75.7984 25.8508 76.8515 26.4356C77.9046 27.018 79.1207 27.3139 80.4673 27.3139C82.0399 27.3139 83.3819 26.9994 84.4583 26.3797L84.5025 26.354V23.323L84.3627 23.4255C83.8758 23.7796 83.3306 24.0638 82.7435 24.2689C82.1588 24.4739 81.6252 24.5764 81.1593 24.5764C79.8616 24.5764 78.8202 24.171 78.063 23.3696C77.3058 22.5681 76.9214 21.4428 76.9214 20.0263C76.9214 18.6005 77.3221 17.4472 78.1119 16.5945C78.8994 15.7441 79.9431 15.3131 81.2152 15.3131C82.3032 15.3131 83.3609 15.6812 84.3651 16.4081L84.5049 16.5083V13.3142L84.4606 13.2885C84.0832 13.0765 83.5683 12.9041 82.9299 12.7713C82.2916 12.6409 81.6695 12.5733 81.0777 12.5733ZM71.2134 12.9134H67.9051V26.9761H71.2134V12.9134ZM69.5942 6.92353C69.049 6.92353 68.5761 7.10992 68.1846 7.4757C67.7932 7.8438 67.5952 8.30743 67.5952 8.85493C67.5952 9.39312 67.7909 9.84976 68.18 10.2062C68.5644 10.5627 69.042 10.7444 69.5965 10.7444C70.151 10.7444 70.6286 10.5627 71.0177 10.2062C71.4114 9.84743 71.6094 9.39312 71.6094 8.85261C71.6094 8.32374 71.4161 7.86477 71.034 7.48735C70.6496 7.11458 70.1673 6.92353 69.5942 6.92353ZM61.3397 11.8767V26.9761H64.7156V7.35455H60.0443L54.1057 21.9298L48.3418 7.35455H43.4795V26.9761H46.6527V11.8767H46.7622L52.8476 26.9784H55.2403L61.2302 11.879L61.3397 11.8767Z"/><path fill="#F1511B" d="M16.484 16.3568H0.92334V0.796143H16.484V16.3568Z"/><path fill="#80CC28" d="M33.6637 16.3568H18.103V0.796143H33.6637V16.3568Z"/><path fill="#00ADEF" d="M16.4816 33.5437H0.920898V17.983H16.4816V33.5437Z"/><path fill="#FBBC09" d="M33.6637 33.5437H18.103V17.983H33.6637V33.5437Z"/></g></svg>