<svg width="31" height="24" viewBox="0 0 31 24" fill="none" xmlns="http://www.w3.org/2000/svg">
<path fill-rule="evenodd" clip-rule="evenodd" d="M14.9759 0.148342C15.2973 -0.0494472 15.7027 -0.0494472 16.0241 0.148342L29.0241 8.14834C29.3198 8.33034 29.5 8.65274 29.5 9C29.5 9.55229 29.0523 10 28.5 10H2.5C2.15274 10 1.83034 9.81985 1.64834 9.5241C1.35889 9.05374 1.50555 8.43779 1.97591 8.14834L14.9759 0.148342ZM6.03304 8L15.5 2.17418L24.967 8H6.03304Z" fill="#F36C35"/>
<path d="M5.5 9V19C5.5 19.5523 5.94772 20 6.5 20C7.05228 20 7.5 19.5523 7.5 19V9C7.5 8.44771 7.05228 8 6.5 8C5.94772 8 5.5 8.44771 5.5 9Z" fill="#F36C35"/>
<path d="M11.5 9V19C11.5 19.5523 11.9477 20 12.5 20C13.0523 20 13.5 19.5523 13.5 19V9C13.5 8.44771 13.0523 8 12.5 8C11.9477 8 11.5 8.44771 11.5 9Z" fill="#F36C35"/>
<path d="M17.5 9V19C17.5 19.5523 17.9477 20 18.5 20C19.0523 20 19.5 19.5523 19.5 19V9C19.5 8.44771 19.0523 8 18.5 8C17.9477 8 17.5 8.44771 17.5 9Z" fill="#F36C35"/>
<path d="M23.5 9V19C23.5 19.5523 23.9477 20 24.5 20C25.0523 20 25.5 19.5523 25.5 19V9C25.5 8.44771 25.0523 8 24.5 8C23.9477 8 23.5 8.44771 23.5 9Z" fill="#F36C35"/>
<path d="M3.5 20H27.5C28.0523 20 28.5 19.5523 28.5 19C28.5 18.4477 28.0523 18 27.5 18H3.5C2.94772 18 2.5 18.4477 2.5 19C2.5 19.5523 2.94772 20 3.5 20Z" fill="#F36C35"/>
<path d="M1.5 24H29.5C30.0523 24 30.5 23.5523 30.5 23C30.5 22.4477 30.0523 22 29.5 22H1.5C0.947715 22 0.5 22.4477 0.5 23C0.5 23.5523 0.947715 24 1.5 24Z" fill="#F36C35"/>
</svg>
